<svg width="234" height="33" viewBox="0 0 234 33" fill="none" xmlns="http://www.w3.org/2000/svg">
<g clip-path="url(#clip0_28_278)">
<path d="M51.5586 31.785V10.2201H54.9025V29.1972H64.9345V31.785H51.5586Z" fill="#3D485D"/>
<path d="M68.9853 13.6089C68.3544 13.6089 67.8286 13.4241 67.4079 13.0544C67.0083 12.6642 66.8086 12.1815 66.8086 11.6065C66.8086 11.0314 67.0083 10.559 67.4079 10.1893C67.8286 9.79916 68.3544 9.604 68.9853 9.604C69.6163 9.604 70.1315 9.79916 70.5311 10.1893C70.9517 10.559 71.1621 11.0314 71.1621 11.6065C71.1621 12.1815 70.9517 12.6642 70.5311 13.0544C70.1315 13.4241 69.6163 13.6089 68.9853 13.6089ZM67.3133 31.7851V16.5048H70.6573V31.7851H67.3133Z" fill="#3D485D"/>
<path d="M73.3086 31.785V16.5047H76.274L76.5264 19.1849C77.0101 18.2402 77.7147 17.5008 78.6398 16.9668C79.5867 16.4123 80.6694 16.135 81.8893 16.135C83.7824 16.135 85.2651 16.7101 86.3376 17.8602C87.4312 19.0104 87.978 20.7253 87.978 23.005V31.785H84.6653V23.3439C84.6653 20.3864 83.4243 18.9077 80.9432 18.9077C79.7022 18.9077 78.6718 19.339 77.8514 20.2015C77.0522 21.0641 76.6526 22.2964 76.6526 23.8985V31.785H73.3086Z" fill="#3D485D"/>
<path d="M97.9939 32.1547C96.4799 32.1547 95.1446 31.8056 93.9878 31.1073C92.8311 30.409 91.9263 29.454 91.2742 28.2423C90.6229 27.0305 90.2969 25.6545 90.2969 24.1142C90.2969 22.5738 90.6229 21.208 91.2742 20.0168C91.9263 18.8051 92.8311 17.8603 93.9878 17.1826C95.1656 16.4843 96.5111 16.1351 98.0259 16.1351C99.2661 16.1351 100.35 16.3713 101.275 16.8437C102.222 17.316 102.958 17.9835 103.484 18.8462V9.604H106.827V31.7851H103.83L103.484 29.413C102.978 30.1318 102.285 30.7684 101.401 31.323C100.518 31.8775 99.3823 32.1547 97.9939 32.1547ZM98.5937 29.3205C100.023 29.3205 101.191 28.8379 102.095 27.8726C103.02 26.9073 103.484 25.6648 103.484 24.145C103.484 22.6046 103.02 21.3621 102.095 20.4173C101.191 19.452 100.023 18.9693 98.5937 18.9693C97.1632 18.9693 95.9854 19.452 95.0603 20.4173C94.1345 21.3621 93.6719 22.6046 93.6719 24.145C93.6719 25.1513 93.8825 26.0447 94.303 26.8252C94.7234 27.6056 95.3021 28.2218 96.0385 28.6736C96.7951 29.1049 97.6468 29.3205 98.5937 29.3205Z" fill="#3D485D"/>
<path d="M115.874 32.1546C113.982 32.1546 112.488 31.5796 111.394 30.4295C110.322 29.2793 109.785 27.5644 109.785 25.2847V16.5046H113.13V24.9458C113.13 27.9033 114.37 29.382 116.852 29.382C118.093 29.382 119.113 28.9507 119.912 28.0881C120.711 27.2255 121.111 25.9932 121.111 24.3913V16.5046H124.455V31.7849H121.489L121.237 29.1047C120.754 30.0495 120.038 30.7992 119.092 31.3536C118.166 31.8876 117.094 32.1546 115.874 32.1546Z" fill="#3D485D"/>
<path d="M133.77 32.1547C131.793 32.1547 130.163 31.6823 128.88 30.7376C127.597 29.7929 126.861 28.54 126.672 26.9791H130.048C130.215 27.6774 130.616 28.2833 131.246 28.7967C131.877 29.2897 132.708 29.5361 133.739 29.5361C134.748 29.5361 135.484 29.3307 135.947 28.92C136.409 28.5092 136.64 28.0368 136.64 27.5028C136.64 26.7224 136.315 26.1987 135.663 25.9317C135.032 25.6441 134.148 25.3874 133.013 25.1615C132.13 24.9766 131.246 24.7302 130.363 24.4222C129.5 24.1141 128.775 23.6828 128.186 23.1282C127.618 22.5532 127.334 21.783 127.334 20.8177C127.334 19.4827 127.86 18.3737 128.912 17.4905C129.963 16.5869 131.435 16.135 133.328 16.135C135.074 16.135 136.483 16.5458 137.555 17.3673C138.649 18.1888 139.291 19.3492 139.48 20.8485H136.262C136.157 20.1913 135.842 19.6778 135.316 19.3082C134.811 18.9385 134.127 18.7537 133.265 18.7537C132.424 18.7537 131.772 18.9282 131.309 19.2774C130.846 19.606 130.616 20.0373 130.616 20.5713C130.616 21.1053 130.931 21.5263 131.562 21.8343C132.214 22.1424 133.066 22.4197 134.117 22.6662C135.168 22.892 136.136 23.159 137.019 23.4671C137.923 23.7546 138.649 24.1859 139.196 24.761C139.743 25.3361 140.016 26.1781 140.016 27.2872C140.037 28.6838 139.48 29.8442 138.345 30.7684C137.229 31.6926 135.705 32.1547 133.77 32.1547Z" fill="#3D485D"/>
<path d="M144.652 31.7851V10.2202H147.996V19.4623H158.691V10.2202H162.035V31.7851H158.691V22.1425H147.996V31.7851H144.652Z" fill="#FEA30C"/>
<path d="M172.551 32.1547C171.016 32.1547 169.648 31.8261 168.449 31.1689C167.272 30.4912 166.347 29.5566 165.673 28.3654C165 27.1742 164.664 25.7879 164.664 24.2065C164.664 22.6045 164.99 21.1977 165.641 19.986C166.315 18.7742 167.24 17.8294 168.418 17.1516C169.616 16.4739 171.005 16.135 172.582 16.135C174.118 16.135 175.453 16.4739 176.589 17.1516C177.724 17.8089 178.607 18.692 179.238 19.8011C179.869 20.9101 180.184 22.1321 180.184 23.4671C180.184 23.6725 180.174 23.8985 180.153 24.1449C180.153 24.3708 180.143 24.6275 180.122 24.9151H167.945C168.05 26.3938 168.544 27.5234 169.428 28.3038C170.332 29.0637 171.373 29.4437 172.551 29.4437C173.497 29.4437 174.285 29.2383 174.916 28.8276C175.568 28.3963 176.052 27.8212 176.368 27.1024H179.712C179.291 28.54 178.45 29.7414 177.188 30.7067C175.947 31.672 174.402 32.1547 172.551 32.1547ZM172.551 18.8152C171.436 18.8152 170.448 19.1438 169.585 19.8011C168.723 20.4377 168.197 21.403 168.008 22.6969H176.841C176.777 21.5057 176.347 20.561 175.547 19.8627C174.749 19.1644 173.749 18.8152 172.551 18.8152Z" fill="#FEA30C"/>
<path d="M188.441 32.1547C187.117 32.1547 186.023 31.939 185.161 31.5078C184.299 31.0765 183.657 30.5117 183.236 29.8134C182.816 29.0946 182.605 28.3141 182.605 27.472C182.605 25.9933 183.194 24.8226 184.372 23.96C185.55 23.0974 187.232 22.6662 189.42 22.6662H193.521V22.3889C193.521 21.1977 193.184 20.3043 192.511 19.7087C191.859 19.1131 191.008 18.8152 189.956 18.8152C189.03 18.8152 188.221 19.0412 187.526 19.493C186.854 19.9243 186.444 20.5713 186.296 21.4338H182.953C183.058 20.3248 183.436 19.3801 184.088 18.5996C184.761 17.7986 185.602 17.1928 186.612 16.782C187.643 16.3507 188.767 16.135 189.987 16.135C192.175 16.135 193.868 16.6998 195.067 17.8294C196.266 18.9385 196.865 20.4583 196.865 22.3889V31.785H193.962L193.678 29.1664C193.237 30.0084 192.596 30.717 191.754 31.2921C190.912 31.8672 189.809 32.1547 188.441 32.1547ZM189.104 29.5053C190.008 29.5053 190.766 29.2999 191.376 28.8891C192.007 28.4578 192.49 27.8931 192.827 27.1948C193.184 26.4965 193.405 25.7263 193.489 24.8842H189.767C188.441 24.8842 187.495 25.1102 186.927 25.562C186.381 26.0138 186.107 26.5787 186.107 27.2564C186.107 27.9547 186.37 28.5092 186.895 28.92C187.443 29.3102 188.179 29.5053 189.104 29.5053Z" fill="#FEA30C"/>
<path d="M200.094 31.7851V9.604H203.438V31.7851H200.094Z" fill="#FEA30C"/>
<path d="M213.792 31.785C212.256 31.785 211.036 31.4256 210.132 30.7067C209.227 29.9674 208.775 28.6633 208.775 26.7942V19.2465H206.094V16.5047H208.775L209.186 12.623H212.119V16.5047H216.536V19.2465H212.119V26.7942C212.119 27.6364 212.298 28.2217 212.655 28.5503C213.034 28.8584 213.675 29.0124 214.58 29.0124H216.378V31.785H213.792Z" fill="#FEA30C"/>
<path d="M219.332 31.7851V9.604H222.676V18.9693C223.202 18.0862 223.928 17.3982 224.853 16.9053C225.799 16.3919 226.84 16.1351 227.976 16.1351C229.848 16.1351 231.32 16.7102 232.392 17.8603C233.465 19.0105 234.001 20.7254 234.001 23.0051V31.7851H230.689V23.344C230.689 20.3865 229.48 18.9078 227.061 18.9078C225.799 18.9078 224.748 19.3391 223.907 20.2016C223.086 21.0642 222.676 22.2965 222.676 23.8985V31.7851H219.332Z" fill="#FEA30C"/>
<path d="M39.7806 22.6277C39.7806 28.0317 35.3281 32.4125 29.8356 32.4125C24.3432 32.4125 19.8906 28.0317 19.8906 22.6277C19.8906 17.2236 24.3432 12.8428 29.8356 12.8428C35.3281 12.8428 39.7806 17.2236 39.7806 22.6277Z" fill="#FFD917"/>
<path fill-rule="evenodd" clip-rule="evenodd" d="M31.6529 9.90844C31.0588 9.82702 30.4519 9.78488 29.835 9.78488C22.6262 9.78488 16.7822 15.5347 16.7822 22.6276C16.7822 26.2504 18.3069 29.523 20.7594 31.8578C19.3922 32.2195 17.9547 32.4124 16.4714 32.4124C7.3745 32.4124 0 25.1567 0 16.2062C0 7.25577 7.3745 0 16.4714 0C23.2981 0 29.1549 4.08624 31.6529 9.90844Z" fill="#FEA30C"/>
</g>
<defs>
<clipPath id="clip0_28_278">
<rect width="234" height="33" fill="white"/>
</clipPath>
</defs>
</svg>
