<svg data-name="Layer 1" xmlns="http://www.w3.org/2000/svg" viewBox="0 0 274.76 114.71"><path d="M88.34 65.38v.06z" fill="#007497"/><path d="M106.18 49.61c4.64-3.21 8.55-5.87 12.93-7.77l4.89-5.76L138.74 17l17.78 23.37a63.13 63.13 0 0117.41 6.08L138.74 2.63l-27.07 33.44L93.45 59a51.71 51.71 0 0112.73-9.39z" fill="#0080a6"/><path d="M139.22 41.71c-22.21 0-42.17 9.76-50.93 23.74h10.95c7.69-9.88 23.33-16.55 40-16.55s28.51 6.67 36.19 16.55h13.65c-5.7-14.1-27.64-23.74-49.86-23.74z" fill="#97c93d"/><path d="M267.87 91.66a3.46 3.46 0 10-3.46-3.46 3.46 3.46 0 003.46 3.46zm0-6.13a2.68 2.68 0 11-2.57 2.67 2.59 2.59 0 012.57-2.67zM252 84.75l-19.38 28.4h6.79l3.06-4.73h19l3.12 4.73h6.8zm-6.24 18.71l6.24-9.52 6.23 9.52zm21.69-14.88h.21l.83 1.4h1l-.93-1.44a1.08 1.08 0 00.82-1.12c0-.87-.8-1.07-1.64-1.07h-1.16V90h.89zm0-1.5h.44c.22 0 .58 0 .58.39s-.36.39-.58.39h-.44zm-152-1.89l-11.8 18.94L92 85.19h-7.23l18.83 28.52 18.93-28.52zm73 9.58c0-4.34-3-9.58-11-9.58h-19.18v28h6.07v-8.74h11.28l6.6 8.74h7.33l-7.55-9.33a10.19 10.19 0 006.4-9.09zm-11.92 4.29h-12.19V90.6h12.14c4.63 0 5.41 2.34 5.41 4.17 0 2.01-.78 4.29-5.41 4.29zm-62 14.09h6.8l3.06-4.73h19l3.12 4.73h6.79l-19.38-28.4zm13.14-9.69l6.24-9.52 6.24 9.52zM66.32 85.19H49.61v28h16.71c8.57 0 18-4 18-14s-9.43-14-18-14zm-.73 22.73h-9.91V90.43h9.91c5.85 0 12.2 1.95 12.2 8.74s-6.35 8.75-12.2 8.75zm161.62-13.15c0-4.34-3-9.58-11-9.58h-19.1v28h6.07v-8.74h11.27l6.61 8.74h7.33l-7.59-9.29a10.18 10.18 0 006.41-9.13zm-11.92 4.29h-12.14V90.6h12.14c4.62 0 5.4 2.34 5.4 4.17 0 2.01-.78 4.29-5.4 4.29zM3.08 113.15h7.07l3.95-6.24h19.38l4 6.24h7.07L23.79 81.52zm14.42-11.64l6.29-9.85 6.21 9.85z" fill="#005373"/></svg>