<?xml version="1.0" encoding="UTF-8"?><svg id="Ebene_1" xmlns="http://www.w3.org/2000/svg" viewBox="0 0 252.48 39.02"><defs><style>.cls-1{fill:#0082a1;}.cls-2{fill:#fe9915;}</style></defs><g><path class="cls-1" d="M70.09,13.88c1.72,2.04,2.56,5.63,2.56,10.8s-1.04,9.08-3.08,11.22c-2.04,2.09-5.37,3.13-10.02,3.13s-8.82-.63-12.1-1.88V.63h8.03V12.36c1.93-.99,4.17-1.51,6.62-1.51,3.65,0,6.31,.99,7.98,3.02m-5.48,10.96c0-2.77-.36-4.64-1.04-5.63-.68-.99-1.93-1.46-3.81-1.46-2.45,0-4.28,.78-4.28,1.88v12.31c1.2,.47,2.56,.68,4.07,.68,3.96-.1,4.85-.89,5.06-7.77"/><path class="cls-1" d="M96.43,18.26c-2.76-.78-5.43-1.15-7.88-1.15-2.76,0-3.76,.37-3.76,2.3,0,1.41,.73,1.83,4.85,2.29,6.42,.84,8.97,2.87,8.97,8.14,0,6.73-4.49,9.18-11.95,9.18-3.65,0-6.83-.47-9.49-1.46l1.57-6.05c2.56,.73,5.06,1.09,7.56,1.09,3.39,0,4.59-.42,4.59-2.35,0-1.51-.99-2.03-5.32-2.45-6-.57-8.56-2.4-8.56-7.83,0-6.73,4.38-9.13,11.84-9.13,3.34,0,6.36,.47,9.13,1.46l-1.57,5.95Z"/><path class="cls-1" d="M108.85,8.03c-3.55,0-4.54-.73-4.54-4.23,0-3.18,.99-3.81,4.54-3.81s4.54,.63,4.54,3.81c0,3.5-.99,4.23-4.54,4.23m4.02,30.26h-8.03V11.58h8.03v26.71Z"/><path class="cls-2" d="M10.89,27.5h0c1.84-.13,2.39-1.36,2.37-1.93-.05-1.26-.49-1.85-1.22-2.89-.96-1.36-2.41-3.09-2.76-6.29-.34-3.18,.7-6.2,2.39-8.22,1.46-1.74,3.56-2.72,6.07-2.89,.23-.02,.46-.02,.68-.02,2.4,0,4.52,.84,6.12,2.51,1.84,1.9,3.1,4.74,2.99,7.72-.12,3.48-1.46,5.34-2.23,6.67-.61,1.04-.89,1.48-.76,2.69,.04,.38,.55,1.92,2.11,1.92,.01,0,.03,0,.04,0l10.99-.51V.63H0V28c8.5-.4,10.43-.49,10.89-.51"/><path class="cls-1" d="M37.68,38.31v-9.77l-10.91,.51c-2.85,.07-4.33-2.34-4.51-3.96-.45-4.04,2.78-4.03,2.98-9.69,.15-4.22-2.67-8.15-7.34-7.83-4.98,.34-6.75,4.68-6.33,8.57,.54,5.06,3.83,5.33,3.99,9.34,.07,1.73-1.34,4.1-4.51,4.32,.03,0-8.17,.38-11.05,.51v8.01H37.68Z"/></g><g><path class="cls-1" d="M246.42,30.93c0-1.2,1.1-1.88,2.4-1.88,1.1,0,2.14,.48,2.56,1.52l.84-.48c-.54-1.22-1.78-2-3.4-2-2.04,0-3.4,1.26-3.4,2.84,0,3.6,6.06,2.04,6.06,4.76,0,1.26-1.18,1.88-2.58,1.88-1.5,0-2.58-.68-2.94-1.76l-.86,.5c.48,1.28,1.8,2.22,3.8,2.22,2.14,0,3.58-1.2,3.58-2.84,0-3.66-6.06-2.08-6.06-4.76m-7.56-1.88c1.96,0,3.68,1.36,3.9,3.8h-8.04c.2-2.22,1.86-3.8,4.14-3.8m0-.96c-3.06,0-5.18,2.28-5.18,5.22s2.18,5.22,5.26,5.22c1.98,0,3.54-.9,4.36-2.26l-.88-.52c-.58,1.06-1.82,1.82-3.46,1.82-2.28,0-4-1.48-4.24-3.74h9.06c0-.16,.02-.32,.02-.48,0-2.74-1.9-5.26-4.94-5.26m-11.04,10.44c1.96,0,3.64-1,4.44-2.54l-.84-.5c-.66,1.24-1.98,2.08-3.6,2.08-2.42,0-4.24-1.88-4.24-4.26s1.82-4.26,4.24-4.26c1.6,0,2.96,.82,3.54,2.08l.82-.48c-.72-1.56-2.4-2.56-4.36-2.56-3.02,0-5.26,2.26-5.26,5.22s2.24,5.22,5.26,5.22m-11.28-10.44c-1.54,0-2.82,.64-3.58,2.12v-1.9h-1v10h1v-5.28c0-2.7,1.54-3.98,3.5-3.98s2.94,1.2,2.94,3.04v6.22h1.02v-6.22c0-2.42-1.5-4-3.88-4m-11.86,.96c1.96,0,3.68,1.36,3.9,3.8h-8.04c.2-2.22,1.86-3.8,4.14-3.8m0-.96c-3.06,0-5.18,2.28-5.18,5.22s2.18,5.22,5.26,5.22c1.98,0,3.54-.9,4.36-2.26l-.88-.52c-.58,1.06-1.82,1.82-3.46,1.82-2.28,0-4-1.48-4.24-3.74h9.06c0-.16,.02-.32,.02-.48,0-2.74-1.9-5.26-4.94-5.26m-8.58,10.22h1v-10h-1v10Zm.5-12.42c.44,0,.8-.36,.8-.8s-.36-.78-.8-.78-.8,.36-.8,.78,.36,.8,.8,.8m-7.14,12.64c1.96,0,3.64-1,4.44-2.54l-.84-.5c-.66,1.24-1.98,2.08-3.6,2.08-2.42,0-4.24-1.88-4.24-4.26s1.82-4.26,4.24-4.26c1.6,0,2.96,.82,3.54,2.08l.82-.48c-.72-1.56-2.4-2.56-4.36-2.56-3.02,0-5.26,2.26-5.26,5.22s2.24,5.22,5.26,5.22m-11.86,0c2.78,0,4.6-1.52,4.6-3.84s-2.16-3.2-4.64-4.02c-2-.66-3.42-1.18-3.42-2.86,0-1.56,1.22-2.7,3.16-2.7s3.08,1.16,3.6,2.42l.9-.5c-.68-1.62-2.2-2.94-4.5-2.94s-4.24,1.46-4.24,3.76c0,2.44,2.1,3.1,4.44,3.86,2.14,.68,3.62,1.32,3.62,3s-1.18,2.8-3.52,2.8-3.72-1.14-4.2-2.82l-.92,.54c.64,1.98,2.5,3.3,5.12,3.3m-17.1-9.48c1.96,0,3.68,1.36,3.9,3.8h-8.04c.2-2.22,1.86-3.8,4.14-3.8m0-.96c-3.06,0-5.18,2.28-5.18,5.22s2.18,5.22,5.26,5.22c1.98,0,3.54-.9,4.36-2.26l-.88-.52c-.58,1.06-1.82,1.82-3.46,1.82-2.28,0-4-1.48-4.24-3.74h9.06c0-.16,.02-.32,.02-.48,0-2.74-1.9-5.26-4.94-5.26m-5.38-3.04v-.96c-2.62-.2-4,1.22-4,3.68v.54h-1.72v.98h1.72v9.02h1.02v-9.02h2.98v-.98h-2.98v-.54c0-1.94,.94-2.88,2.98-2.72m-8.8,13.26h1v-10h-1v10Zm.5-12.42c.44,0,.8-.36,.8-.8s-.36-.78-.8-.78-.8,.36-.8,.78,.36,.8,.8,.8m-9.1,11.42v-13h-1.06v14h7.66v-1h-6.6Z"/><path class="cls-1" d="M243.74,6.3v-1.96h-1V14.34h1v-5.56c0-2.56,1.62-3.62,3.34-3.62v-.96c-1.36,0-2.66,.52-3.34,2.1m-8.64,7.3c-2.38,0-4.24-1.88-4.24-4.26s1.86-4.26,4.24-4.26,4.22,1.88,4.22,4.26-1.84,4.26-4.22,4.26m0,.96c2.9,0,5.24-2.26,5.24-5.22s-2.34-5.22-5.24-5.22-5.26,2.26-5.26,5.22,2.34,5.22,5.26,5.22m-5.46-13.48V.12c-2.62-.2-4,1.22-4,3.68v.54h-1.72v.98h1.72V14.34h1.02V5.32h2.98v-.98h-2.98v-.54c0-1.94,.94-2.88,2.98-2.72m-17.34,4c1.96,0,3.68,1.36,3.9,3.8h-8.04c.2-2.22,1.86-3.8,4.14-3.8m0-.96c-3.06,0-5.18,2.28-5.18,5.22s2.18,5.22,5.26,5.22c1.98,0,3.54-.9,4.36-2.26l-.88-.52c-.58,1.06-1.82,1.82-3.46,1.82-2.28,0-4-1.48-4.24-3.74h9.06c0-.16,.02-.32,.02-.48,0-2.74-1.9-5.26-4.94-5.26m-9.26,2.18v-1.96h-1V14.34h1v-5.56c0-2.56,1.62-3.62,3.34-3.62v-.96c-1.36,0-2.66,.52-3.34,2.1m-9.32,7.3c-2.38,0-4.24-1.88-4.24-4.26s1.86-4.26,4.24-4.26,4.22,1.88,4.22,4.26-1.84,4.26-4.22,4.26m4.22-9.26v2.26c-.84-1.5-2.38-2.48-4.3-2.48-2.84,0-5.18,2.26-5.18,5.22s2.34,5.22,5.18,5.22c1.92,0,3.46-.98,4.3-2.48v2.26h1.02V4.34h-1.02Zm-11.66,0l-2.66,8.7-2.8-8.7h-1.04l-2.8,8.7-2.66-8.7h-1.06l3.16,10h1.1l2.78-8.52,2.78,8.52h1.1l3.16-10h-1.06Zm-14.54,.98v-.98h-2.98V1.54l-1.02,.3v2.5h-2.2v.98h2.2v6.5c0,2.28,1.38,2.92,4,2.52v-.9c-2.04,.18-2.98,.14-2.98-1.62V5.32h2.98Zm-6.98-4.24V.12c-2.62-.2-4,1.22-4,3.68v.54h-1.72v.98h1.72V14.34h1.02V5.32h2.98v-.98h-2.98v-.54c0-1.94,.94-2.88,2.98-2.72m-11.96,12.52c-2.38,0-4.24-1.88-4.24-4.26s1.86-4.26,4.24-4.26,4.22,1.88,4.22,4.26-1.84,4.26-4.22,4.26m0,.96c2.9,0,5.24-2.26,5.24-5.22s-2.34-5.22-5.24-5.22-5.26,2.26-5.26,5.22,2.34,5.22,5.26,5.22m-11.86,0c2.78,0,4.6-1.52,4.6-3.84s-2.16-3.2-4.64-4.02c-2-.66-3.42-1.18-3.42-2.86,0-1.56,1.22-2.7,3.16-2.7s3.08,1.16,3.6,2.42l.9-.5c-.68-1.62-2.2-2.94-4.5-2.94s-4.24,1.46-4.24,3.76c0,2.44,2.1,3.1,4.44,3.86,2.14,.68,3.62,1.32,3.62,3s-1.18,2.8-3.52,2.8-3.72-1.14-4.2-2.82l-.92,.54c.64,1.98,2.5,3.3,5.12,3.3"/></g></svg>