<svg xmlns="http://www.w3.org/2000/svg" xmlns:xlink="http://www.w3.org/1999/xlink" id="Layer_2" viewBox="0 0 167.99 28.27"><defs><style>.cls-1{fill:url(#linear-gradient);}.cls-2{fill:url(#linear-gradient-3);}.cls-3{fill:url(#linear-gradient-4);}.cls-4{fill:url(#linear-gradient-2);}</style><linearGradient id="linear-gradient" x1="220.99" y1="1643.31" x2="213.2" y2="1658.34" gradientTransform="translate(-599.79 1553.38) rotate(15) scale(1 -1)" gradientUnits="userSpaceOnUse"><stop offset="0" stop-color="#aa1fe5"/><stop offset=".35" stop-color="#f41f86"/><stop offset=".68" stop-color="#ffab1e"/><stop offset=".71" stop-color="#ffb02c" stop-opacity=".93"/><stop offset=".77" stop-color="#ffbf53" stop-opacity=".76"/><stop offset=".86" stop-color="#ffd692" stop-opacity=".48"/><stop offset=".97" stop-color="#fff6e7" stop-opacity=".11"/><stop offset="1" stop-color="#fff" stop-opacity="0"/></linearGradient><linearGradient id="linear-gradient-2" x1="218.38" y1="1661.49" x2="226.17" y2="1646.46" xlink:href="#linear-gradient"/><linearGradient id="linear-gradient-3" x1="218.83" y1="1659.11" x2="224.27" y2="1647.9" gradientTransform="translate(-599.79 1553.38) rotate(15) scale(1 -1)" gradientUnits="userSpaceOnUse"><stop offset="0" stop-color="#aa1fe5"/><stop offset=".21" stop-color="#f41f86"/><stop offset=".5" stop-color="#ffab1e"/><stop offset=".65" stop-color="#ffc35f" stop-opacity=".71"/><stop offset="1" stop-color="#fff" stop-opacity="0"/></linearGradient><linearGradient id="linear-gradient-4" x1="220.55" y1="1645.69" x2="215.1" y2="1656.9" xlink:href="#linear-gradient-3"/></defs><g id="Layer_2-2"><g id="Copy"><g><g><path class="cls-1" d="M34.54,17.35c-1.77-3.06-.72-6.99,2.35-8.75l-1.13-1.95c-4.15,2.39-5.57,7.69-3.17,11.84,2.39,4.15,7.69,5.57,11.84,3.17l-1.13-1.96c-3.06,1.77-6.99,.72-8.75-2.35h0Z"/><path class="cls-4" d="M35.75,6.64l1.13,1.95c3.06-1.77,6.99-.72,8.75,2.35,1.77,3.06,.72,6.99-2.35,8.75l1.13,1.96c4.15-2.39,5.57-7.69,3.17-11.84-2.39-4.15-7.69-5.57-11.84-3.17h0Z"/><path class="cls-2" d="M43.68,12.06c1.15,1.99,.47,4.52-1.52,5.67l1.13,1.95c3.06-1.77,4.12-5.69,2.35-8.75s-5.69-4.12-8.75-2.35l1.13,1.95c1.99-1.15,4.52-.47,5.67,1.52h0Z"/><path class="cls-3" d="M34.54,17.35c1.77,3.06,5.69,4.12,8.75,2.35l-1.13-1.95c-1.99,1.15-4.52,.47-5.67-1.52-1.15-1.99-.47-4.52,1.52-5.67l-1.13-1.95c-3.06,1.77-4.12,5.69-2.35,8.75h0Z"/></g><path d="M0,5.97H4.21v2.2h.09c.41-.91,2.29-2.52,5.22-2.52,3.8,0,7.86,2.83,7.86,8.48s-4.05,8.49-7.86,8.49c-2.92,0-4.81-1.6-5.22-2.52h-.09v8.17H0V5.97Zm8.68,12.89c2.36,0,4.56-1.67,4.56-4.72s-2.2-4.71-4.56-4.71-4.56,1.63-4.56,4.71,2.2,4.72,4.56,4.72ZM19.95,5.97h4.21v4.24c.56-2.52,2.17-4.56,5.12-4.56,.38,0,.72,.03,1.1,.13v4.02c-.38-.06-.69-.09-1.07-.09-3.17,0-5.15,2.2-5.15,5.47v7.13h-4.21s0-16.34,0-16.34Zm31.47,0h4.21v2.2h.09c.41-.91,2.29-2.52,5.22-2.52,3.8,0,7.86,2.83,7.86,8.48s-4.05,8.49-7.86,8.49c-2.92,0-4.81-1.6-5.22-2.52h-.09v8.17h-4.21V5.97Zm8.68,12.89c2.36,0,4.56-1.67,4.56-4.72s-2.2-4.71-4.56-4.71-4.56,1.63-4.56,4.71,2.2,4.72,4.56,4.72ZM71.38,0h4.21V8.2c.91-1.44,2.54-2.54,5-2.54,3.36,0,6.19,2.07,6.19,7.04v9.62h-4.21V13.39c0-2.39-1.29-3.96-3.49-3.96s-3.49,1.57-3.49,3.96v8.93h-4.21V0h0Zm17.81,14.14c0-5.66,4.05-8.48,7.86-8.48,2.92,0,4.81,1.6,5.22,2.52h.09v-2.2h4.21V22.31h-4.21v-2.2h-.09c-.41,.91-2.29,2.52-5.22,2.52-3.8,0-7.86-2.83-7.86-8.49Zm8.71,4.72c2.36,0,4.56-1.64,4.56-4.72s-2.2-4.71-4.56-4.71-4.56,1.67-4.56,4.71,2.2,4.72,4.56,4.72Zm12.66-12.89h4.21v4.24c.56-2.52,2.17-4.56,5.12-4.56,.38,0,.72,.03,1.1,.13v4.02c-.38-.06-.69-.09-1.07-.09-3.17,0-5.15,2.2-5.15,5.47v7.13h-4.21V5.97Zm23.16,7.04c0-2.33-1.23-3.58-3.02-3.58s-3.17,1.26-3.17,3.58v9.3h-4.21V5.97h4.21v2.11c.88-1.38,2.39-2.42,4.68-2.42,2.01,0,3.77,.85,4.78,2.73,.94-1.51,2.73-2.73,5.41-2.73,3.46,0,5.97,2.17,5.97,7.17v9.49h-4.24V13.01c0-2.33-1.19-3.58-3.02-3.58s-3.17,1.26-3.17,3.58v9.3h-4.21V13.01h0Zm16.89,1.13c0-5.66,4.05-8.48,7.86-8.48,2.92,0,4.81,1.6,5.22,2.52h.09v-2.2h4.21V22.32h-4.21v-2.2h-.09c-.41,.91-2.29,2.52-5.22,2.52-3.8,0-7.86-2.83-7.86-8.49Zm8.71,4.72c2.36,0,4.56-1.64,4.56-4.72s-2.2-4.71-4.56-4.71-4.56,1.67-4.56,4.71,2.2,4.72,4.56,4.72Z"/></g></g></g></svg>