<svg xmlns="http://www.w3.org/2000/svg" xmlns:xlink="http://www.w3.org/1999/xlink" id="Layer_1" x="0px" y="0px" viewBox="0 0 329 106.4" style="enable-background:new 0 0 329 106.4;" xml:space="preserve"><style type="text/css">	.st0{fill:#AA0061;}	.st1{fill:#315470;}</style><g>	<path class="st0" d="M34.3,18.2v11.2c0,0.6-0.5,1-1,1H21.5v26.4c0,0.5-0.4,0.9-1,0.9c-7.2,0-12.7-5.6-12.7-12.8V18.7  c0-0.5,0.4-0.9,0.9-0.9h12c0.5,0,0.9,0.4,0.9,0.9v7.9c1.3-5.4,6-9.3,11.8-9.3C33.9,17.3,34.3,17.7,34.3,18.2z M50.4,30.4v14.7h9.4  c0.6,0,1,0.5,1,1v10.5c0,0.6-0.5,1-1,1H49.5c-7.2,0-12.7-5.6-12.7-12.8V8.6c0-0.5,0.4-0.9,0.9-0.9h12c0.5,0,0.9,0.4,0.9,0.9v9.3H60  c0.6,0,1,0.5,1,1v10.5c0,0.6-0.5,1-1,1H50.4z"></path>	<g>		<g>			<g>				<path class="st1" d="M80.4,90.5c0-4.4,2.9-7.4,6.9-7.4c4.2,0,6.7,2.8,6.7,7.3v1.1H83.4c0.2,2.4,1.7,3.9,4.1,3.9s3.5-1.2,4-2.5     l2.6,1c-1,2.2-3,3.9-6.6,3.9C83.1,97.8,80.4,94.9,80.4,90.5z M90.9,89.2c-0.1-2.4-1.5-3.7-3.7-3.7c-2.1,0-3.7,1.4-4,3.7H90.9z"></path>				<path class="st1" d="M95.9,87.6c0-6.2,3.8-10.3,9.2-10.3c4.5,0,7.9,2.3,8.7,7.4h-3.2c-0.7-3.5-2.8-4.6-5.5-4.6     c-3.7,0-6.1,2.8-6.1,7.4v0.2c0,4.6,2.4,7.4,6.1,7.4c2.9,0,5.1-1.2,5.7-4.9h3.2c-0.8,5.3-4.3,7.6-8.9,7.6     C99.6,97.9,95.9,93.8,95.9,87.6z"></path>				<path class="st1" d="M116.3,77.3h3v20.2h-3V77.3z"></path>				<path class="st1" d="M122.6,78h3.2v3.1h-3.2V78z M122.7,83.4h3v14.2h-3V83.4z"></path>				<path class="st1" d="M129.1,83.4h2.9v2.7c0.8-1.9,2.2-3,4.3-3c3.1,0,4.9,2.1,4.9,5.8v8.6h-3V89c0-2.2-0.9-3.4-2.8-3.4     c-2.2,0-3.5,1.8-3.5,5.1v6.8H129V83.4H129.1z"></path>				<path class="st1" d="M144.4,78h3.2v3.1h-3.2V78z M144.5,83.4h3v14.2h-3V83.4z"></path>				<path class="st1" d="M150.1,90.4c0-4.2,2.9-7.3,7-7.3c3.3,0,5.4,1.8,6.3,4.6l-2.8,0.9c-0.5-1.8-1.5-2.9-3.5-2.9     c-2.5,0-4,2-4,4.8v0.1c0,2.8,1.4,4.8,3.9,4.8c2.3,0,3.3-1.2,3.8-3.1l2.8,0.9c-0.9,2.9-3.1,4.7-6.5,4.7     C152.8,97.8,150.1,94.7,150.1,90.4z"></path>				<path class="st1" d="M165.1,93.8c0-3.2,2.4-3.9,5.5-4.6c2.4-0.5,3.9-0.7,4.2-1.4v-0.2c0-1.2-0.9-2.1-3-2.1s-3.2,1-3.4,2.5v0.2     h-3c0.1-3.2,2.6-5.1,6.4-5.1c3.6,0,5.8,1.6,5.8,5.2v7v2.2h-2.8v-2.1c-1,1.7-2.7,2.5-4.8,2.5C167,97.9,165.1,96.2,165.1,93.8z      M174.8,91.8v-1.7c-0.9,0.6-2.4,0.8-3.8,1.2c-1.6,0.4-2.9,0.9-2.9,2.4c0,1.2,0.9,1.9,2.4,1.9C172.6,95.6,174.6,94.6,174.8,91.8z     "></path>				<path class="st1" d="M180.9,77.3h3v20.2h-3V77.3z"></path>				<path class="st1" d="M192.2,91.2h3.2c0.6,2.9,2.2,4,5.2,4c2.7,0,4.3-1.3,4.3-3.4c0-2-2.4-2.5-5.2-3.1c-3.3-0.7-6.8-1.7-6.8-5.6     c0-3.5,2.9-6,7-6c4.5,0,7.4,2.2,8,6.7h-3.2c-0.4-2.9-2.1-4-4.8-4c-2.5,0-4,1.3-4,3.2c0,2.1,2.6,2.5,5.5,3.1     c3.3,0.6,6.6,1.7,6.6,5.5c0,3.6-2.7,6.2-7.2,6.2C195.6,97.8,192.9,95.5,192.2,91.2z"></path>				<path class="st1" d="M209.8,90.5c0-4.3,2.9-7.3,7.1-7.3s7.1,3,7.1,7.3s-3,7.3-7.1,7.3S209.8,94.8,209.8,90.5z M221.1,90.6     L221.1,90.6c0-3.1-1.6-4.9-4.1-4.9s-4.1,1.9-4.1,4.8v0.1c0,2.9,1.6,4.7,4.1,4.7C219.4,95.3,221.1,93.4,221.1,90.6z"></path>				<path class="st1" d="M226.5,77.3h3v20.2h-3V77.3z"></path>				<path class="st1" d="M232.7,92v-8.6h3v8.5c0,2.2,1,3.4,2.9,3.4c2.3,0,3.4-2,3.4-5.1v-6.8h2.9v14.2H242v-2.4     c-0.8,1.7-2.2,2.7-4.2,2.7C234.5,97.8,232.7,95.6,232.7,92z"></path>				<path class="st1" d="M249.4,94v-8.1h-2.2v-2.5h2.2v-2.8l2.8-1.8v4.5h3.1v2.5h-3.1v7.7c0,0.9,0.4,1.3,1.3,1.3h1.7v2.6h-2.5     C250.1,97.4,249.5,96.2,249.4,94z"></path>				<path class="st1" d="M257.9,78h3.2v3.1h-3.2V78z M258,83.4h3v14.2h-3V83.4z"></path>				<path class="st1" d="M263.6,90.5c0-4.3,2.9-7.3,7.1-7.3s7.1,3,7.1,7.3s-3,7.3-7.1,7.3S263.6,94.8,263.6,90.5z M274.8,90.6     L274.8,90.6c0-3.1-1.6-4.9-4.1-4.9s-4.1,1.9-4.1,4.8v0.1c0,2.9,1.6,4.7,4.1,4.7C273.2,95.3,274.8,93.4,274.8,90.6z"></path>				<path class="st1" d="M280.3,83.4h2.9v2.7c0.8-1.9,2.2-3,4.3-3c3.1,0,4.9,2.1,4.9,5.8v8.6h-3V89c0-2.2-0.9-3.4-2.9-3.4     c-2.2,0-3.4,1.8-3.4,5.1v6.8h-2.9V83.4H280.3z"></path>				<path class="st1" d="M294.7,94.9l2.5-1.3c0.9,1.3,2.3,1.9,3.8,1.9c1.6,0,2.5-0.7,2.5-1.9c0-1.2-1.6-1.5-3.9-2     c-2.6-0.5-4.9-1.4-4.9-4.2c0-2.5,2.3-4.4,5.3-4.4c2.7,0,4.7,1.2,6.1,3l-2.5,1.3c-0.8-1.2-2.1-1.9-3.6-1.9s-2.5,0.7-2.5,1.8     c0,1.2,1,1.4,3.5,1.9s5.2,1.4,5.2,4.2c0,2.6-2.3,4.5-5.5,4.5C298.2,97.9,296,96.7,294.7,94.9z"></path>			</g>		</g>		<path class="st1" d="M80.8,17.8h16c12.2,0,16.3,4.6,16.3,10.9c0,5.7-3.7,9.5-9.6,10.7c6.3,1.5,9.1,6.2,10.1,15.1   c0.1,0.7,0.3,2.6,0.4,3.1h-10c0-0.1-0.1-1.4-0.1-1.9c-0.8-7.7-3.3-12.5-10-12.6h-3.6v14.5h-9.5C80.8,57.6,80.8,17.8,80.8,17.8z    M95.3,37.4c5.9,0,8.3-3.7,8.3-7.2c0-3.7-2.2-5.7-7.9-5.7h-5.5v12.9H95.3z M115.9,43.7c0-8.9,5.9-14.9,14.8-14.9   c9.1,0,14.3,5.6,14.3,15V46h-20.3c0.4,3.8,2.9,5.8,6.5,5.8c3.7,0,5.5-1.8,6.3-4.1l7.4,2.2c-1.9,5.2-6.1,8.4-14,8.4   C121.5,58.3,115.9,52.6,115.9,43.7z M136.1,40.7c-0.2-3.8-2-5.6-5.5-5.6c-3.2,0-5.5,2-5.9,5.6H136.1z M148.4,50.2   c0-6.4,5-7.8,11-9c4.9-1,7.7-1.2,7.9-2.8v-0.2c0-1.7-1.4-3-4.6-3c-3.2,0-4.9,1.6-5,3.9v0.5H149c0.1-6.6,5.3-10.9,13.9-10.9   c8.5,0,13.3,3.5,13.3,11.6v17.3h-8.9v-3.9c-1.7,2.9-4.9,4.7-9.2,4.7C152.2,58.5,148.4,55.2,148.4,50.2z M167.4,46.8V44   c-1.4,0.7-3.4,1.1-5.3,1.6c-2.5,0.7-4.5,1.6-4.5,4c0,1.7,1.3,2.9,3.5,2.9C164,52.5,167.1,51,167.4,46.8z M181.5,17.8h9.1v39.8   h-9.1V17.8z M205.4,25.4H194v-7.6h32.4v7.6h-11.3v32.3h-9.7V25.4z M229.8,17.8h9.4v7.6h-9.4V17.8z M230,29.4h9.1v28.3H230V29.4z    M244.4,29.4h9.1V34c1.4-3.4,4.3-5.3,8.4-5.3c3.7,0,6.6,1.7,7.9,5.9c1.3-3.5,4.4-5.9,9.4-5.9c5.7,0,9.1,4.1,9.1,11.7v17.3h-9.1   V41.1c0-3.5-1.3-5.1-4-5.1c-2.9,0-4.3,2-4.3,5.9v15.8h-9.1V40.9c0-3.3-1.3-4.9-4-4.9c-2.6,0-4.3,1.8-4.3,5.9v15.8h-9.1V29.4z    M292.1,43.7c0-8.9,5.9-14.9,14.8-14.9c9.1,0,14.3,5.6,14.3,15V46h-20.3c0.4,3.8,2.9,5.8,6.5,5.8c3.7,0,5.5-1.8,6.3-4.1l7.4,2.2   c-1.9,5.2-6.1,8.4-14,8.4C297.7,58.3,292.1,52.6,292.1,43.7z M312.2,40.7c-0.2-3.8-2-5.6-5.5-5.6c-3.2,0-5.5,2-5.9,5.6H312.2z"></path>	</g></g></svg>