<svg xmlns="http://www.w3.org/2000/svg" viewBox="0 0 268.94 29.56"><defs><style>.cls-1{fill:#898a8d;}.cls-2{fill:#ff9e18;}.cls-3{fill:none;}</style></defs><g id="Layer_2" data-name="Layer 2"><g id="Layer_1-2" data-name="Layer 1"><path class="cls-1" d="M150.43,19.47l.49,1.18c.16-.41.32-.81.49-1.21s.36-.78.55-1.15L159.28,4.6a1.72,1.72,0,0,1,.28-.41.9.9,0,0,1,.33-.23,1.57,1.57,0,0,1,.4-.08l.53,0h3.47V28.59h-4v-16c0-.3,0-.62,0-1s0-.71.08-1.08l-7.47,14a2.1,2.1,0,0,1-.67.74,1.69,1.69,0,0,1-1,.27h-.63a1.69,1.69,0,0,1-1-.27,2.1,2.1,0,0,1-.67-.74l-7.57-14.08c0,.38.08.75.09,1.11s0,.69,0,1v16h-4.05V3.86H141l.53,0a1.57,1.57,0,0,1,.4.08.9.9,0,0,1,.33.23,1.49,1.49,0,0,1,.29.41l7.39,13.73Q150.18,18.87,150.43,19.47Z"/><path class="cls-1" d="M175.44,10.77a8.61,8.61,0,0,1,3.05.53,6.58,6.58,0,0,1,2.4,1.55,7.08,7.08,0,0,1,1.58,2.49,9.62,9.62,0,0,1,.56,3.38,6,6,0,0,1,0,.8,1.18,1.18,0,0,1-.16.49.61.61,0,0,1-.29.26,1.34,1.34,0,0,1-.48.08H171.21a6,6,0,0,0,1.46,4A4.5,4.5,0,0,0,176,25.58a5.83,5.83,0,0,0,1.77-.24,8.53,8.53,0,0,0,1.3-.53c.37-.19.69-.37,1-.53a1.64,1.64,0,0,1,.82-.24.87.87,0,0,1,.44.1,1.13,1.13,0,0,1,.33.29L182.88,26a6.88,6.88,0,0,1-1.58,1.38,8.52,8.52,0,0,1-1.82.89,9.88,9.88,0,0,1-1.93.47,14.09,14.09,0,0,1-1.91.14,9.46,9.46,0,0,1-3.4-.61,7.64,7.64,0,0,1-2.74-1.8,8.54,8.54,0,0,1-1.83-2.94,11.48,11.48,0,0,1-.66-4.06,9.68,9.68,0,0,1,.58-3.38,8.09,8.09,0,0,1,1.67-2.75,7.82,7.82,0,0,1,2.65-1.86A8.82,8.82,0,0,1,175.44,10.77Zm.08,3a3.9,3.9,0,0,0-2.89,1,5.16,5.16,0,0,0-1.33,3h7.93a5.23,5.23,0,0,0-.22-1.55,3.54,3.54,0,0,0-.68-1.27,3.26,3.26,0,0,0-1.16-.87A4,4,0,0,0,175.52,13.8Z"/><path class="cls-1" d="M198.81,28.59a1,1,0,0,1-1.07-.77l-.35-1.69a9.92,9.92,0,0,1-1.14,1.11,7.38,7.38,0,0,1-1.29.85,6.64,6.64,0,0,1-1.49.56,7.18,7.18,0,0,1-1.72.2,5.71,5.71,0,0,1-4.69-2.34,8.34,8.34,0,0,1-1.34-2.81,14.39,14.39,0,0,1-.47-3.83,12.11,12.11,0,0,1,.53-3.63,8.82,8.82,0,0,1,1.53-2.9,7,7,0,0,1,2.37-1.93,6.9,6.9,0,0,1,3.11-.69,6.16,6.16,0,0,1,2.52.47,6.37,6.37,0,0,1,1.86,1.26V3.18h4.23V28.59Zm-5.62-3.1a4.37,4.37,0,0,0,2.24-.54,6.78,6.78,0,0,0,1.74-1.56V15.52a4.2,4.2,0,0,0-1.56-1.23,4.62,4.62,0,0,0-1.82-.36,4.1,4.1,0,0,0-1.74.36,3.37,3.37,0,0,0-1.32,1.09,5.36,5.36,0,0,0-.82,1.85,10.21,10.21,0,0,0-.3,2.64,12.15,12.15,0,0,0,.25,2.61,5.18,5.18,0,0,0,.71,1.74,2.67,2.67,0,0,0,1.13,1A3.61,3.61,0,0,0,193.19,25.49Z"/><path class="cls-1" d="M222.6,3.86V7.64h-7.44v21h-4.6V7.64h-7.47V3.86Z"/><path class="cls-1" d="M227.34,10.77a8.61,8.61,0,0,1,3,.53,6.58,6.58,0,0,1,2.4,1.55,7.22,7.22,0,0,1,1.58,2.49,9.62,9.62,0,0,1,.56,3.38,6,6,0,0,1,0,.8,1.18,1.18,0,0,1-.16.49.59.59,0,0,1-.3.26,1.26,1.26,0,0,1-.48.08H223.11a6,6,0,0,0,1.46,4,4.5,4.5,0,0,0,3.35,1.27,5.83,5.83,0,0,0,1.77-.24,9,9,0,0,0,1.3-.53c.37-.19.69-.37,1-.53a1.63,1.63,0,0,1,.81-.24.91.91,0,0,1,.45.1,1.1,1.1,0,0,1,.32.29L234.78,26a7.09,7.09,0,0,1-1.58,1.38,8.76,8.76,0,0,1-1.82.89,10.06,10.06,0,0,1-1.93.47,14.09,14.09,0,0,1-1.91.14,9.46,9.46,0,0,1-3.4-.61,7.64,7.64,0,0,1-2.74-1.8,8.54,8.54,0,0,1-1.83-2.94,11.48,11.48,0,0,1-.66-4.06,9.68,9.68,0,0,1,.58-3.38,8.23,8.23,0,0,1,1.66-2.75,8,8,0,0,1,2.66-1.86A8.82,8.82,0,0,1,227.34,10.77Zm.08,3a3.9,3.9,0,0,0-2.89,1,5.16,5.16,0,0,0-1.33,3h7.93a5.23,5.23,0,0,0-.22-1.55,3.7,3.7,0,0,0-.68-1.27,3.21,3.21,0,0,0-1.17-.87A3.93,3.93,0,0,0,227.42,13.8Z"/><path class="cls-1" d="M250.7,14.75a2.24,2.24,0,0,1-.37.38.87.87,0,0,1-.52.14,1.2,1.2,0,0,1-.64-.2l-.73-.44a5.38,5.38,0,0,0-1-.45A4.7,4.7,0,0,0,246,14a4.44,4.44,0,0,0-2,.4,3.69,3.69,0,0,0-1.39,1.15,5,5,0,0,0-.83,1.82,9.41,9.41,0,0,0-.28,2.42,9.47,9.47,0,0,0,.3,2.5,5.33,5.33,0,0,0,.87,1.84A3.79,3.79,0,0,0,244,25.25a4.26,4.26,0,0,0,1.82.38,4.4,4.4,0,0,0,1.63-.25,4.66,4.66,0,0,0,1-.54c.29-.2.53-.39.74-.55A1.12,1.12,0,0,1,250,24a.85.85,0,0,1,.77.39L252,26a7.82,7.82,0,0,1-1.52,1.38,8.2,8.2,0,0,1-1.71.89,8.54,8.54,0,0,1-1.82.47,13,13,0,0,1-1.86.14,7.88,7.88,0,0,1-3.06-.61,7.35,7.35,0,0,1-2.51-1.77,8.72,8.72,0,0,1-1.69-2.85,10.89,10.89,0,0,1-.62-3.84,11.15,11.15,0,0,1,.55-3.58,8.17,8.17,0,0,1,1.64-2.86A7.48,7.48,0,0,1,242,11.45a9.3,9.3,0,0,1,3.66-.68,8.78,8.78,0,0,1,3.45.63,8.47,8.47,0,0,1,2.66,1.82Z"/><path class="cls-1" d="M253.65,28.59V3.18h4.23v9.76a8.85,8.85,0,0,1,2.25-1.57,6.57,6.57,0,0,1,2.89-.6,6.2,6.2,0,0,1,2.55.49,5,5,0,0,1,1.86,1.37,6,6,0,0,1,1.13,2.1,9.11,9.11,0,0,1,.38,2.69V28.59h-4.22V17.42a3.74,3.74,0,0,0-.75-2.49,2.77,2.77,0,0,0-2.23-.88,4.4,4.4,0,0,0-2.05.5,7.29,7.29,0,0,0-1.81,1.35V28.59Z"/><path class="cls-2" d="M103.78,3.81H99L90.85,20,82.74,3.81H78C83.12,14,90.9,29.56,90.9,29.56Z"/><path class="cls-2" d="M66.62,24.61a8.5,8.5,0,0,1-8.23-6.44h20.8v-2A12.57,12.57,0,1,0,77.74,22h-5a8.43,8.43,0,0,1-6.14,2.63m0-17a8.51,8.51,0,0,1,8.24,6.44H58.39a8.5,8.5,0,0,1,8.23-6.44"/><path class="cls-2" d="M127.67,16.22V3.88h-4.09V7a12.55,12.55,0,1,0-8.47,21.81,12.47,12.47,0,0,0,8.47-3.31v3.12h4.09V16.22M115.11,24.7a8.48,8.48,0,1,1,8.47-8.62v.28a8.48,8.48,0,0,1-8.47,8.34"/><path class="cls-2" d="M38.74,24.61a8.5,8.5,0,0,1-8.23-6.44h20.8v-2A12.57,12.57,0,1,0,49.86,22h-5a8.45,8.45,0,0,1-6.14,2.63m0-17A8.49,8.49,0,0,1,47,14.09H30.51a8.5,8.5,0,0,1,8.23-6.44"/><polygon class="cls-3" points="0 0 5.04 0 14.65 19.3 24.18 0 29.14 0 14.6 29.52 0 0"/><polygon class="cls-2" points="0 0 5.04 0 14.65 19.3 24.18 0 29.14 0 14.6 29.52 0 0"/><path class="cls-1" d="M8,.05l6.57,13.1L21.14.05S8,0,8,.05Z"/></g></g></svg>