<svg xmlns="http://www.w3.org/2000/svg" width="245.573" height="45.2" viewBox="0 0 245.573 45.2">
  <g id="Logo" transform="translate(0.257)">
    <g id="Logo-2" data-name="Logo" transform="translate(0.015 -8.066)">
      <g id="TS-Logo" transform="translate(-0.2 1.966)">
        <g id="Group_33" data-name="Group 33">
          <path id="Path_41" data-name="Path 41" d="M5.6,15.4h-1l.2-7.2H33.7l.2,7.2H33a10.744,10.744,0,0,0-1.4-4.3,3.5,3.5,0,0,0-1.9-1.6,13.488,13.488,0,0,0-3.4-.3H21.5v21a38.938,38.938,0,0,0,.2,4.6,2.157,2.157,0,0,0,.9,1.6,5.565,5.565,0,0,0,2.7.5h1.5v1h-15v-1h1.5a4.851,4.851,0,0,0,2.6-.5,1.956,1.956,0,0,0,.9-1.5,40.586,40.586,0,0,0,.2-4.8V9.1H12.6a16.662,16.662,0,0,0-3.9.3A4.953,4.953,0,0,0,7,11.2,12.721,12.721,0,0,0,5.6,15.4Z"/>
          <path id="Path_42" data-name="Path 42" d="M48.3,26.1H35.7a15.765,15.765,0,0,0-.1,1.9c0,3.2.5,5.5,1.5,7.1a4.906,4.906,0,0,0,4.4,2.4,5.794,5.794,0,0,0,5.7-3.6h1.1a6.088,6.088,0,0,1-2.8,3.5A9.029,9.029,0,0,1,41,38.7a8.214,8.214,0,0,1-4.3-1.2,8.715,8.715,0,0,1-3.3-3.3,9.79,9.79,0,0,1-1.4-5,10.277,10.277,0,0,1,2.5-7.1,8.073,8.073,0,0,1,6.3-2.8,6.811,6.811,0,0,1,5.5,2.2A7.545,7.545,0,0,1,48.3,26.1Zm-3.9-.9c0-.3.1-.6.1-.9a3.783,3.783,0,0,0-3.9-4.1c-2.7,0-4.3,1.7-4.8,5Z"/>
          <path id="Path_43" data-name="Path 43" d="M67.2,33.6h1q-1.5,5.1-7.5,5.1a8.914,8.914,0,0,1-9.1-9.5A9.721,9.721,0,0,1,54.4,22a9.369,9.369,0,0,1,6.7-2.7,8.8,8.8,0,0,1,4.3,1c1.3.7,2,1.5,2,2.5a1.284,1.284,0,0,1-.4,1,1.231,1.231,0,0,1-1,.5c-1,0-1.6-.6-1.8-1.7a3.769,3.769,0,0,0-.8-1.8,3.722,3.722,0,0,0-2.2-.5,5.16,5.16,0,0,0-4.4,2c-1,1.4-1.5,3.4-1.5,6.2a11.517,11.517,0,0,0,1.6,6.6,5.46,5.46,0,0,0,4.8,2.4A5.049,5.049,0,0,0,67.2,33.6Z"/>
          <path id="Path_44" data-name="Path 44" d="M76,23a9.846,9.846,0,0,1,3-2.8,7.4,7.4,0,0,1,3.6-.9,6.994,6.994,0,0,1,3.7.9,4.186,4.186,0,0,1,1.9,2.3,15.876,15.876,0,0,1,.4,4.4v5a29.594,29.594,0,0,0,.1,3.8,1.265,1.265,0,0,0,.7,1,5.39,5.39,0,0,0,2.2.3v1H82.3V37h.4a3.159,3.159,0,0,0,2.1-.5,1.606,1.606,0,0,0,.5-1.1,26.666,26.666,0,0,0,.1-3.6V26.4a13.111,13.111,0,0,0-.3-3.3,3.6,3.6,0,0,0-1.2-1.8,3.986,3.986,0,0,0-2.4-.7,5,5,0,0,0-3.1,1,9.325,9.325,0,0,0-2.4,3v7.2a28.587,28.587,0,0,0,.1,3.7,1.64,1.64,0,0,0,.7,1.1,4.811,4.811,0,0,0,2.1.4v1H69.8V37h.5a3.36,3.36,0,0,0,2.1-.5,1.606,1.606,0,0,0,.5-1.1,26.666,26.666,0,0,0,.1-3.6V13.9a8.165,8.165,0,0,0-.5-3.5,4.125,4.125,0,0,0-2.6-.6v-1a15.482,15.482,0,0,0,5.7-.9H76Z"/>
        </g>
        <g id="Group_34" data-name="Group 34">
          <path id="Path_45" data-name="Path 45" d="M120.2,17.8h-1.4v-.3c0-5.2-2.1-8-5.9-8a4.831,4.831,0,0,0-5,5.2c0,1.8.9,3.5,3.5,6.3l2.9,3.1a10.431,10.431,0,0,1,3,6.8c0,5-4,8.8-9.3,8.8a8.069,8.069,0,0,1-7-3.3l-1.7,2.4H97.6l2.1-10H101c0,.6-.1,1.2-.1,1.5,0,4.4,2.9,7.6,6.8,7.6,3.3,0,5.6-2.2,5.6-5.3,0-2.2-.9-3.8-4.3-7.3-2.8-2.9-3.7-4.4-4.3-6.7a7.613,7.613,0,0,1-.3-2.1,8.583,8.583,0,0,1,8.4-8.7,7.424,7.424,0,0,1,6.3,3l1.2-2.3h1.4Z" fill="#fff"/>
          <path id="Path_46" data-name="Path 46" d="M127.1,39.3c-3.1,0-5-2.6-5-6.9,0-7,4.7-13.5,9.9-13.5,3,0,5,2.7,5,6.5v.5C136.6,33.2,132.1,39.3,127.1,39.3ZM134,22.9a1.984,1.984,0,0,0-1.9-2.2c-2.1,0-3.6,2-5.3,6.8a32.7,32.7,0,0,0-1.6,7.2v.2c0,1.8.7,2.8,2,2.8s2.5-1,3.6-3.2A28.657,28.657,0,0,0,134,23.1Z" fill="#fff"/>
          <path id="Path_47" data-name="Path 47" d="M153.5,20.9h-4.4l-5.5,20c-1.9,6.8-4.8,10.4-8.4,10.4-2,0-3.5-1.2-3.5-3a2.15,2.15,0,0,1,2-2.3,1.394,1.394,0,0,1,1.5,1.4,1.746,1.746,0,0,1-.4,1.2l-.1.2c-.1.2-.1.2-.1.3a.773.773,0,0,0,.8.7c1.4,0,2.4-1.9,4-7.5l5.9-21.5h-4.7l.4-1.6h4.7l.3-1.1c1.6-5.3,2.6-7.3,4.5-9.3a7.945,7.945,0,0,1,5.9-2.7c2.3,0,4.3,1.3,4.3,3a1.733,1.733,0,0,1-1.8,1.8c-1,0-1.6-.5-1.9-1.7-.3-1.1-.5-1.3-1.3-1.3a3.768,3.768,0,0,0-2.8,1.5,20.485,20.485,0,0,0-2.3,5.8l-1.1,4h4.4Z" fill="#fff"/>
          <path id="Path_48" data-name="Path 48" d="M164.7,21.5h-3.1L157.4,35a5.339,5.339,0,0,0-.3,1.3.8.8,0,0,0,.9.9c1.3,0,2.7-1.7,4.1-5.1l1.5.7c-1.8,4.3-4.2,6.5-6.9,6.5-1.9,0-3.1-1-3.1-2.7a8.583,8.583,0,0,1,.6-3L158,21.5h-3l.5-1.6h3l2-6.4h3.6L162,20h3.1Z" fill="#fff"/>
          <path id="Path_49" data-name="Path 49" d="M170.7,39.3a4.465,4.465,0,0,1-4.6-4.8,13.737,13.737,0,0,1,2.7-7.3l2.9-4,.5-.7a8.376,8.376,0,0,1-1,.2,2.686,2.686,0,0,1-1.3-.4l-.7-.4a1.6,1.6,0,0,0-.8-.3c-.6,0-.9.5-1,1.7l-1.2-.3c.4-2.6,1.7-4.6,2.9-4.6.8,0,1.2.3,2.5,1.8.4.5.7.7,1,.7a.634.634,0,0,0,.6-.5l.4-1.2a.661.661,0,0,1,.7-.6,1.175,1.175,0,0,1,1.1,1c0,.5-.3,1-1.3,2.5-2.5,3.9-4.5,9.1-4.5,12,0,1.8.9,2.9,2.2,2.9,1.5,0,3.5-1.4,5.8-4.1a17.856,17.856,0,0,1-.1-2.1,16.5,16.5,0,0,1,3-9.5c1.1-1.6,2.3-2.4,3.4-2.4,1.2,0,2,.9,2,2.4,0,1.7-.6,3.5-2.2,6.1a24.9,24.9,0,0,1-3,4.3c.2,3.1,1.6,5.3,3.3,5.3,1.8,0,4.3-2.2,5.7-5a13.233,13.233,0,0,0,1.5-5.9c0-1.1-.1-1.4-1.1-4a6.183,6.183,0,0,1-.4-1.6,1.774,1.774,0,0,1,1.7-1.8c1.3,0,2,1.6,2,4,0,6.3-3.3,13.4-7.3,15.7a7.316,7.316,0,0,1-3.1.9c-2.3,0-3.9-1.3-5.1-4.4C175.1,38,173,39.3,170.7,39.3Zm13.5-17.6c0-.5-.3-.9-.6-.9-.8,0-1.8,1.5-2.5,3.9a12.8,12.8,0,0,0-.5,4.1v.5C183.2,25.8,184.2,23.5,184.2,21.7Z" fill="#fff"/>
          <path id="Path_50" data-name="Path 50" d="M208.2,39.3c-1.6,0-2.7-1.2-2.7-3.1v-.4c-2.4,2.6-4,3.5-6,3.5-2.4,0-4.1-1.9-4.1-4.9,0-4.2,2.7-9.6,6.5-13a9.119,9.119,0,0,1,5.6-2.5,2.414,2.414,0,0,1,2.4,1.3l.2-.7h3.5l-5,16.3a3.085,3.085,0,0,0-.1.9.684.684,0,0,0,.7.7c1.1,0,2.7-1.5,4-4l1.3.6C212.5,37.4,210.2,39.3,208.2,39.3Zm-9.3-4.2c0,1.4.6,2.3,1.6,2.3,1.8,0,4-2.4,5.5-5.8a4.329,4.329,0,0,0,.4-1.1c1-2.5,1.8-4.8,2.4-6.8a9.254,9.254,0,0,0,.4-1.9,1.561,1.561,0,0,0-1.6-1.5c-1.9,0-4.1,2.4-6.5,7a17.059,17.059,0,0,0-2.2,7.6v.2Z" fill="#fff"/>
          <path id="Path_51" data-name="Path 51" d="M217.7,38.7l2.6-9.9a39.752,39.752,0,0,0,1.5-6.9q0-.9-.6-.9c-.9,0-2,1.8-2.9,4.4h-1.5c1.3-4.2,2.9-6.5,4.8-6.5,1.7,0,2.5,1.3,2.5,3.9a10.989,10.989,0,0,1-.4,2.8,18.9,18.9,0,0,1,3.4-5.8,2.911,2.911,0,0,1,2.2-1.2c1.2,0,2,1,2,2.4,0,1.2-.7,2.3-1.5,2.3a1.234,1.234,0,0,1-.8-.4l-.5-.7a.867.867,0,0,0-.7-.4c-1,0-2.7,3.3-4.5,9.1l-2.4,7.7h-3.2Z" fill="#fff"/>
          <path id="Path_52" data-name="Path 52" d="M243.6,33c-2.2,4.3-4.6,6.3-7.4,6.3-2.5,0-4.3-2.1-4.3-5.2,0-3.8,2-8.5,5-12,1.8-2,3.9-3.2,5.7-3.2a2.759,2.759,0,0,1,2.9,2.8c0,3.2-3.6,6.6-9.8,9.5a12.228,12.228,0,0,0-.6,3.5c0,1.8.7,2.8,1.9,2.8,1.8,0,3.4-1.8,5.1-5.3Zm-.4-11.1a1.23,1.23,0,0,0-1.1-1.3c-2.1,0-4.5,3.6-5.8,8.7C240.6,27,243.2,24.2,243.2,21.9Z" fill="#fff"/>
        </g>
        <g id="Group_1" transform="translate(0.2 17.346)">
          <path id="Path_33" d="M6.4,20.2a13.576,13.576,0,0,1-2.9-.3c-.2,0-.2-.2-.2-.3s.2-.2.3-.2c2,.6,11.5-1.7,16.4-4,4.3-2,8.3-4.1,10.7-6.7s3.5-4.6,2.8-6.1-2-2.3-6.6-2c-3.7.3-7.8,2-12.3,4.1C8.3,7.8,1.2,13.6,1.1,16.5c0,.2-.2.2-.3.2s-.2-.2-.2-.3c.3-3.7,6-8.9,13.8-12.6A36.261,36.261,0,0,1,26.8.1c4.9-.5,6.3.6,7.1,2.1.8,1.7-.2,4.1-2.8,6.9a43.545,43.545,0,0,1-10.7,7.4C15.3,18.8,10.3,20.2,6.4,20.2Z"/>
          <path id="Path_34" d="M2.9,19.4a1.613,1.613,0,0,0,.3-.9,1.752,1.752,0,0,0-1.7-1.7c-.3,0-.5,0-.6.2A1.491,1.491,0,0,0,0,18.5a1.752,1.752,0,0,0,1.7,1.7A1.3,1.3,0,0,0,2.9,19.4Z" fill="none" stroke="#2ec0e8" stroke-width="0.5"/>
        </g>
      </g>
    </g>
  </g>
</svg>
