<svg width="149" height="51" viewBox="0 0 149 51" fill="none" xmlns="http://www.w3.org/2000/svg">
<path fill-rule="evenodd" clip-rule="evenodd" d="M142.649 24.9288L142.65 39.582L145.925 39.582L145.925 24.9288H148.648V21.653L145.925 21.653V16.4766L142.649 16.4766L142.649 21.653L139.94 21.653L139.94 24.9288H142.649Z" fill="#FF6400"/>
<path d="M1.8433 44.2227H6.78755C6.87506 44.2227 6.91882 44.2667 6.91882 44.3547V45.0765C6.91882 45.1645 6.87506 45.2085 6.78755 45.2085H4.87111V50.8238C4.87111 50.9118 4.82735 50.9558 4.73985 50.9558H3.88226C3.79475 50.9558 3.75099 50.9118 3.75099 50.8238V45.2085H1.8433C1.75579 45.2085 1.71204 45.1645 1.71204 45.0765V44.3547C1.71204 44.2667 1.75579 44.2227 1.8433 44.2227Z" fill="#2B2D42"/>
<path d="M9.60534 44.2227H13.8408C13.9283 44.2227 13.9808 44.2667 13.9808 44.3547V45.0765C13.9808 45.1645 13.9283 45.2085 13.8408 45.2085H10.6029V47.18H13.5607C13.6483 47.18 13.692 47.224 13.692 47.312V48.0073C13.692 48.0953 13.6483 48.1393 13.5607 48.1393H10.6029V49.97H13.8408C13.9283 49.97 13.9808 50.014 13.9808 50.102V50.8238C13.9808 50.9118 13.9283 50.9558 13.8408 50.9558H9.60534C9.51783 50.9558 9.47408 50.9118 9.47408 50.8238V44.3547C9.47408 44.2667 9.51783 44.2227 9.60534 44.2227Z" fill="#2B2D42"/>
<path d="M19.3335 44.1787C19.9985 44.1787 20.5761 44.2051 21.0049 44.2843C21.1099 44.3019 21.1711 44.3547 21.1711 44.4692V45.0236C21.1711 45.1205 21.1274 45.1645 21.0399 45.1645H19.3335C17.9683 45.1645 17.732 45.7102 17.732 47.5848C17.732 49.4595 17.9683 50.014 19.3335 50.014H21.0399C21.1274 50.014 21.1711 50.058 21.1711 50.1461V50.7005C21.1711 50.815 21.1099 50.8766 21.0049 50.8942C20.5761 50.9646 19.9985 50.9998 19.3335 50.9998C17.1545 50.9998 16.5944 50.2165 16.5944 47.5848C16.5944 44.9444 17.1545 44.1787 19.3335 44.1787Z" fill="#2B2D42"/>
<path d="M28.3937 44.2227H29.26C29.3476 44.2227 29.3913 44.2667 29.3913 44.3547V50.815C29.3913 50.9118 29.3476 50.9558 29.26 50.9558H28.3937C28.3062 50.9558 28.2624 50.9118 28.2624 50.815V48.0601H25.0334V50.815C25.0334 50.9118 24.9896 50.9558 24.9021 50.9558H24.0358C23.9483 50.9558 23.9045 50.9118 23.9045 50.815V44.3547C23.9045 44.2667 23.9483 44.2227 24.0358 44.2227H24.9021C24.9896 44.2227 25.0334 44.2667 25.0334 44.3547V47.0656H28.2624V44.3547C28.2624 44.2667 28.3062 44.2227 28.3937 44.2227Z" fill="#2B2D42"/>
<path d="M36.9718 44.2227H37.8294C37.9169 44.2227 37.9606 44.2667 37.9606 44.3547V50.815C37.9606 50.9118 37.9169 50.9558 37.8294 50.9558H37.1555C36.9893 50.9558 36.893 50.9206 36.788 50.7622L33.6202 46.0182V50.815C33.6202 50.9118 33.5764 50.9558 33.4889 50.9558H32.6226C32.5351 50.9558 32.4913 50.9118 32.4913 50.815V44.3547C32.4913 44.2667 32.5351 44.2227 32.6226 44.2227H33.3489C33.6814 44.2315 33.7339 44.2843 33.874 44.4956L36.8405 48.9227V44.3547C36.8405 44.2667 36.8843 44.2227 36.9718 44.2227Z" fill="#2B2D42"/>
<path d="M43.59 44.1787C45.7778 44.1787 46.3378 44.962 46.3378 47.6025C46.3378 50.2253 45.7778 50.9998 43.59 50.9998C41.4111 50.9998 40.8423 50.2253 40.8423 47.6025C40.8423 44.962 41.4111 44.1787 43.59 44.1787ZM43.59 45.1645C42.2249 45.1645 41.9799 45.7278 41.9799 47.6025C41.9799 49.4595 42.2249 50.014 43.59 50.014C44.9552 50.014 45.209 49.4595 45.209 47.6025C45.209 45.7278 44.9552 45.1645 43.59 45.1645Z" fill="#2B2D42"/>
<path d="M49.3518 44.2227H50.2182C50.3057 44.2227 50.3494 44.2667 50.3494 44.3547V49.97H53.3772C53.4647 49.97 53.5085 50.014 53.5085 50.102V50.8238C53.5085 50.9118 53.4647 50.9558 53.3772 50.9558H49.3518C49.2643 50.9558 49.2206 50.9118 49.2206 50.8238V44.3547C49.2206 44.2667 49.2643 44.2227 49.3518 44.2227Z" fill="#2B2D42"/>
<path d="M58.593 44.1787C60.7808 44.1787 61.3408 44.962 61.3408 47.6025C61.3408 50.2253 60.7808 50.9998 58.593 50.9998C56.4141 50.9998 55.8453 50.2253 55.8453 47.6025C55.8453 44.962 56.4141 44.1787 58.593 44.1787ZM58.593 45.1645C57.2279 45.1645 56.9829 45.7278 56.9829 47.6025C56.9829 49.4595 57.2279 50.014 58.593 50.014C59.9582 50.014 60.212 49.4595 60.212 47.6025C60.212 45.7278 59.9582 45.1645 58.593 45.1645Z" fill="#2B2D42"/>
<path d="M66.7438 44.1787C67.2951 44.1787 68.0827 44.2051 68.5202 44.2843C68.6253 44.3019 68.6778 44.3547 68.6778 44.4692V45.0236C68.6778 45.1205 68.634 45.1645 68.5465 45.1645H66.7438C65.3787 45.1645 65.1424 45.719 65.1424 47.5937C65.1424 49.4683 65.3787 50.014 66.7438 50.014H67.9602V47.7785C67.9602 47.6905 68.0039 47.6377 68.0914 47.6377H68.8878C68.9753 47.6377 69.019 47.6905 69.019 47.7785V50.3397C69.019 50.4541 69.0103 50.4893 68.984 50.5333C68.7915 50.9206 67.6539 50.9998 66.7438 50.9998C64.5648 50.9998 64.0048 50.2253 64.0048 47.5937C64.0048 44.9532 64.5648 44.1787 66.7438 44.1787Z" fill="#2B2D42"/>
<path d="M76.097 44.2227H77.0508C77.1734 44.2227 77.2259 44.2755 77.1471 44.4163L74.7494 48.8523V50.815C74.7494 50.9118 74.7056 50.9558 74.6181 50.9558H73.7605C73.673 50.9558 73.6293 50.9118 73.6293 50.815V48.8434L71.2403 44.4163C71.1615 44.2755 71.214 44.2227 71.3365 44.2227H72.2816C72.4129 44.2227 72.4654 44.2667 72.5179 44.3635L74.1893 47.6817L75.8607 44.3635C75.9132 44.2667 75.9657 44.2227 76.097 44.2227Z" fill="#2B2D42"/>
<path d="M85.3853 44.1787C86.1116 44.1787 86.4529 44.2227 87.1443 44.3283C87.2493 44.3459 87.2843 44.3899 87.2843 44.4692V45.0148C87.2843 45.1117 87.2405 45.1645 87.153 45.1645H85.1316C84.4752 45.1645 84.1515 45.3757 84.1515 45.8422V45.983C84.1515 46.3527 84.274 46.5727 84.7378 46.7663L86.5142 47.4792C87.3368 47.8137 87.6168 48.2714 87.6168 49.1251V49.3979C87.6168 50.7181 86.5842 50.9998 85.2103 50.9998C84.5277 50.9998 83.8364 50.9558 83.0576 50.8414C82.9701 50.8238 82.9351 50.7798 82.9351 50.6829V50.1549C82.9351 50.058 82.9788 50.014 83.0751 50.014H85.5166C86.1642 50.014 86.4879 49.8204 86.4879 49.3539V49.2043C86.4879 48.7994 86.3392 48.5618 85.8404 48.3594L83.9502 47.6113C83.2414 47.3472 83.0226 46.8191 83.0226 45.9742V45.7718C83.0226 44.4516 83.9939 44.1787 85.3853 44.1787Z" fill="#2B2D42"/>
<path d="M90.4896 44.2227H91.3471C91.4347 44.2227 91.4784 44.2667 91.4784 44.3547V50.815C91.4784 50.9118 91.4347 50.9558 91.3471 50.9558H90.4896C90.4021 50.9558 90.3583 50.9118 90.3583 50.815V44.3547C90.3583 44.2667 90.4021 44.2227 90.4896 44.2227Z" fill="#2B2D42"/>
<path d="M100.31 44.2227H101.176C101.264 44.2227 101.29 44.2667 101.299 44.3547L101.894 50.815C101.903 50.9118 101.85 50.9558 101.763 50.9558H100.905C100.818 50.9558 100.783 50.9118 100.774 50.815L100.38 46.1942L98.6474 50.6213C98.6124 50.7005 98.5511 50.7357 98.4724 50.7357H97.746C97.6673 50.7357 97.606 50.7005 97.5798 50.6213L95.8471 46.1942L95.4445 50.815C95.4358 50.9118 95.4008 50.9558 95.3133 50.9558H94.4557C94.3682 50.9558 94.3157 50.9118 94.3244 50.815L94.9195 44.3547C94.9282 44.2755 94.9545 44.2227 95.042 44.2227H95.9083C96.1534 44.2227 96.2321 44.3019 96.3284 44.566L98.1136 49.2219L99.89 44.5572C99.995 44.3019 100.065 44.2227 100.31 44.2227Z" fill="#2B2D42"/>
<path d="M106.96 44.1787C108.903 44.1787 109.559 44.5836 109.559 46.3703C109.559 48.1921 108.903 48.4826 106.96 48.4826H105.866V50.8238C105.866 50.9294 105.84 50.9558 105.735 50.9558H104.869C104.764 50.9558 104.737 50.9294 104.737 50.8238V44.3723C104.737 44.2755 104.764 44.2579 104.869 44.2491C105.569 44.1963 106.356 44.1787 106.96 44.1787ZM106.855 45.1645H105.866V47.576H106.855C108.098 47.576 108.422 47.4704 108.422 46.3967C108.422 45.3493 108.098 45.1645 106.855 45.1645Z" fill="#2B2D42"/>
<path d="M112.404 44.2227H113.271C113.358 44.2227 113.402 44.2667 113.402 44.3547V49.97H116.43C116.517 49.97 116.561 50.014 116.561 50.102V50.8238C116.561 50.9118 116.517 50.9558 116.43 50.9558H112.404C112.317 50.9558 112.273 50.9118 112.273 50.8238V44.3547C112.273 44.2667 112.317 44.2227 112.404 44.2227Z" fill="#2B2D42"/>
<path d="M119.248 44.2227H120.105C120.193 44.2227 120.237 44.2667 120.237 44.3547V50.815C120.237 50.9118 120.193 50.9558 120.105 50.9558H119.248C119.16 50.9558 119.117 50.9118 119.117 50.815V44.3547C119.117 44.2667 119.16 44.2227 119.248 44.2227Z" fill="#2B2D42"/>
<path d="M123.468 44.2227H127.607C127.694 44.2227 127.747 44.2667 127.747 44.3547V45.0765C127.747 45.1645 127.694 45.2085 127.607 45.2085H124.465V47.18H127.327C127.414 47.18 127.458 47.224 127.458 47.312V48.0073C127.458 48.0953 127.414 48.1393 127.327 48.1393H124.465V50.8238C124.465 50.9118 124.422 50.9558 124.334 50.9558H123.468C123.38 50.9558 123.337 50.9118 123.337 50.8238V44.3547C123.337 44.2667 123.38 44.2227 123.468 44.2227Z" fill="#2B2D42"/>
<path d="M130.491 44.2227H131.348C131.436 44.2227 131.48 44.2667 131.48 44.3547V50.815C131.48 50.9118 131.436 50.9558 131.348 50.9558H130.491C130.403 50.9558 130.359 50.9118 130.359 50.815V44.3547C130.359 44.2667 130.403 44.2227 130.491 44.2227Z" fill="#2B2D42"/>
<path d="M134.711 44.2227H138.946C139.034 44.2227 139.086 44.2667 139.086 44.3547V45.0765C139.086 45.1645 139.034 45.2085 138.946 45.2085H135.708V47.18H138.666C138.754 47.18 138.797 47.224 138.797 47.312V48.0073C138.797 48.0953 138.754 48.1393 138.666 48.1393H135.708V49.97H138.946C139.034 49.97 139.086 50.014 139.086 50.102V50.8238C139.086 50.9118 139.034 50.9558 138.946 50.9558H134.711C134.623 50.9558 134.579 50.9118 134.579 50.8238V44.3547C134.579 44.2667 134.623 44.2227 134.711 44.2227Z" fill="#2B2D42"/>
<path d="M144.517 44.1787C146.539 44.1787 147.3 45.1821 147.3 47.5937C147.3 49.9964 146.539 50.9998 144.517 50.9998C143.712 50.9998 142.75 50.9734 142.05 50.9206C141.945 50.9118 141.918 50.903 141.918 50.8062V44.3723C141.918 44.2755 141.945 44.2579 142.05 44.2491C142.75 44.1963 143.712 44.1787 144.517 44.1787ZM144.43 45.1645H143.047V50.014H144.517C145.725 50.014 146.163 49.2923 146.163 47.5937C146.163 45.895 145.699 45.1645 144.43 45.1645Z" fill="#2B2D42"/>
<path d="M10.8042 11.5901C8.17494 12.8553 6.035 14.9505 4.71458 17.5524C3.39415 20.1544 2.96661 23.1186 3.49791 25.9876C4.02921 28.8567 5.48983 31.4712 7.65443 33.4278C9.81902 35.3844 12.5673 36.5744 15.4753 36.8142C18.3833 37.0539 21.2893 36.3301 23.7451 34.7544C26.201 33.1787 28.0701 30.8387 29.0641 28.0954C29.8554 25.9115 30.0571 23.5685 29.6642 21.2996L32.3697 18.5909C33.4622 22.0599 33.3828 25.792 32.1438 29.2113C30.9048 32.6307 28.5751 35.5474 25.5141 37.5114C22.453 39.4754 18.8308 40.3776 15.2061 40.0788C11.5815 39.7799 8.15591 38.2967 5.45786 35.8579C2.75981 33.4191 0.939223 30.1602 0.276986 26.5841C-0.385251 23.008 0.147658 19.3133 1.7935 16.0701C3.43934 12.8269 6.10665 10.2153 9.38392 8.63838C12.6612 7.06143 16.3663 6.60671 19.9277 7.34436L17.0083 10.283C14.8762 10.2122 12.7466 10.6555 10.8042 11.5901Z" fill="#FF6400"/>
<path fill-rule="evenodd" clip-rule="evenodd" d="M38.7196 0.987793L23.063 14.1198L9.67358 29.4752L25.3301 16.3432L38.7196 0.987793ZM17.2888 28.0277L28.046 19.0069L37.2437 8.45659L26.4865 17.4774L17.2888 28.0277ZM31.1119 2.43529L20.3547 11.4561L11.1571 22.0064L21.9143 12.9856L31.1119 2.43529Z" fill="#2B2D42"/>
<path fill-rule="evenodd" clip-rule="evenodd" d="M46.4376 25.0936C45.3186 24.8691 44.1586 24.9844 43.1045 25.4248C42.0504 25.8652 41.1494 26.611 40.5155 27.5679C39.8816 28.5248 39.5433 29.6499 39.5433 30.8007C39.5433 31.9516 39.8816 33.0766 40.5155 34.0335C41.1494 34.9905 42.0504 35.7363 43.1045 36.1767C44.1586 36.6171 45.3186 36.7324 46.4376 36.5078C47.5566 36.2833 48.5846 35.7291 49.3913 34.9153L51.7223 37.2665C50.4545 38.5453 48.8392 39.4162 47.0807 39.769C45.3222 40.1219 43.4995 39.9408 41.843 39.2487C40.1865 38.5566 38.7707 37.3846 37.7746 35.8809C36.7785 34.3771 36.2468 32.6092 36.2468 30.8007C36.2468 28.9922 36.7785 27.2243 37.7746 25.7206C38.7707 24.2169 40.1865 23.0449 41.843 22.3528C43.4995 21.6607 45.3222 21.4796 47.0807 21.8324C48.8392 22.1853 50.4545 23.0561 51.7223 24.335L49.3913 26.6861C48.5846 25.8724 47.5566 25.3182 46.4376 25.0936Z" fill="#FF6400"/>
<path fill-rule="evenodd" clip-rule="evenodd" d="M56.0111 24.9288L56.0111 39.582L59.2868 39.582L59.2868 24.9288H62.0098V21.653L59.2868 21.653V16.4766L56.0111 16.4766L56.0111 21.653L53.3015 21.653L53.3015 24.9288H56.0111Z" fill="#FF6400"/>
<path fill-rule="evenodd" clip-rule="evenodd" d="M117.636 24.8539C116.856 24.8539 116.084 25.0078 115.364 25.3066C114.643 25.6055 113.989 26.0435 113.437 26.5957C112.886 27.1479 112.449 27.8035 112.15 28.525C111.852 29.2465 111.698 30.0198 111.698 30.8007C111.698 31.5817 111.852 32.355 112.15 33.0765C112.449 33.798 112.886 34.4535 113.437 35.0058C113.989 35.558 114.643 35.996 115.364 36.2949C116.084 36.5937 116.856 36.7475 117.636 36.7475C118.416 36.7475 119.188 36.5937 119.909 36.2949C120.629 35.996 121.284 35.558 121.835 35.0058C122.387 34.4535 122.824 33.798 123.122 33.0765C123.421 32.355 123.574 31.5817 123.574 30.8007C123.574 30.0198 123.421 29.2465 123.122 28.525C122.824 27.8035 122.387 27.1479 121.835 26.5957C121.284 26.0435 120.629 25.6055 119.909 25.3066C119.188 25.0078 118.416 24.8539 117.636 24.8539ZM114.142 22.3528C115.25 21.8933 116.437 21.6567 117.636 21.6567C118.835 21.6567 120.023 21.8933 121.13 22.3528C122.238 22.8123 123.245 23.4859 124.093 24.335C124.941 25.1841 125.613 26.1921 126.072 27.3015C126.531 28.4109 126.767 29.5999 126.767 30.8007C126.767 32.0015 126.531 33.1906 126.072 34.3C125.613 35.4094 124.941 36.4174 124.093 37.2665C123.245 38.1156 122.238 38.7892 121.13 39.2487C120.023 39.7082 118.835 39.9447 117.636 39.9447C116.437 39.9447 115.25 39.7082 114.142 39.2487C113.034 38.7892 112.028 38.1156 111.18 37.2665C110.332 36.4174 109.66 35.4094 109.201 34.3C108.742 33.1906 108.506 32.0015 108.506 30.8007C108.506 29.5999 108.742 28.4109 109.201 27.3015C109.66 26.1921 110.332 25.1841 111.18 24.335C112.028 23.4859 113.034 22.8123 114.142 22.3528Z" fill="#FF6400"/>
<path fill-rule="evenodd" clip-rule="evenodd" d="M78.7411 37.8049V39.5841H82.0006V31.1354C82.0047 31.024 82.0067 30.9124 82.0067 30.8008C82.0067 30.6891 82.0047 30.5776 82.0006 30.4662V21.6567L78.7411 21.6567V23.7966C78.0276 23.1978 77.2255 22.7105 76.362 22.3528C75.2526 21.8933 74.0636 21.6568 72.8627 21.6568C71.6619 21.6568 70.4729 21.8933 69.3635 22.3528C68.2541 22.8123 67.2461 23.4859 66.397 24.335C65.5479 25.1841 64.8743 26.1921 64.4148 27.3015C63.9553 28.4109 63.7188 29.6 63.7188 30.8008C63.7188 32.0016 63.9553 33.1906 64.4148 34.3C64.8743 35.4094 65.5479 36.4174 66.397 37.2665C67.2461 38.1156 68.2541 38.7892 69.3635 39.2487C70.4729 39.7082 71.6619 39.9448 72.8627 39.9448C74.0636 39.9448 75.2526 39.7082 76.362 39.2487C77.2255 38.891 78.0276 38.4037 78.7411 37.8049ZM78.7411 29.9011L78.7411 31.7004C78.669 32.1718 78.5402 32.6339 78.3569 33.0765C78.058 33.798 77.62 34.4536 77.0678 35.0058C76.5156 35.558 75.86 35.996 75.1385 36.2949C74.417 36.5937 73.6437 36.7476 72.8627 36.7476C72.0818 36.7476 71.3085 36.5937 70.587 36.2949C69.8655 35.996 69.2099 35.558 68.6577 35.0058C68.1055 34.4536 67.6675 33.798 67.3686 33.0765C67.0698 32.355 66.916 31.5817 66.916 30.8008C66.916 30.0198 67.0698 29.2465 67.3686 28.525C67.6675 27.8035 68.1055 27.148 68.6577 26.5957C69.2099 26.0435 69.8655 25.6055 70.587 25.3066C71.3085 25.0078 72.0818 24.854 72.8627 24.854C73.6437 24.854 74.417 25.0078 75.1385 25.3066C75.86 25.6055 76.5156 26.0435 77.0678 26.5957C77.62 27.148 78.058 27.8035 78.3569 28.525C78.5402 28.9676 78.669 29.4297 78.7411 29.9011Z" fill="#FF6400"/>
<path fill-rule="evenodd" clip-rule="evenodd" d="M86.7598 39.5819L86.7598 12.729L90.0355 12.729L90.0355 39.5819L86.7598 39.5819Z" fill="#FF6400"/>
<path fill-rule="evenodd" clip-rule="evenodd" d="M140.086 14.5836C138.473 12.4018 135.875 12.3834 134.316 12.9899C133.374 13.3562 132.633 14.0676 132.137 14.8436C131.638 15.6251 131.313 16.586 131.313 17.5792L131.313 21.6561H128.593L128.593 24.8709H131.313L131.313 39.5789C131.313 39.5791 131.313 39.5792 132.92 39.5792C134.527 39.5792 134.527 39.5791 134.527 39.5789L134.527 24.8709H137.249V21.6561H134.527L134.527 17.5792C134.527 17.2741 134.635 16.9058 134.846 16.5745C135.062 16.2376 135.31 16.0526 135.481 15.9861C136.147 15.7271 137.011 15.8324 137.501 16.4944L140.086 14.5836Z" fill="#FF6400"/>
<path d="M99.82 39.9447C95.9858 39.9447 93.4036 37.5337 93.4036 34.5327H96.5596C96.5857 35.9178 97.9159 37.1746 99.8982 37.1746C101.724 37.1746 102.898 36.0717 102.898 34.6866C102.898 33.4554 101.828 32.7373 100.316 32.3269L98.0724 31.7113C94.2121 30.7366 93.534 28.4538 93.534 26.9149C93.534 23.7856 96.3249 21.6567 99.6374 21.6567C102.924 21.6567 105.506 23.6574 105.506 26.9662H102.35C102.35 25.5041 101.228 24.4525 99.5591 24.4525C98.0202 24.4525 96.7422 25.4785 96.7422 26.8636C96.7422 27.3509 96.8987 28.3769 98.9592 28.9155L101.098 29.5311C103.915 30.3006 106.08 31.7369 106.08 34.5584C106.08 37.7902 103.341 39.9447 99.82 39.9447Z" fill="#FF6400"/>
</svg>
