<?xml version="1.0" encoding="UTF-8"?>
<!-- Generated by Pixelmator Pro 3.5.6 -->
<svg width="1067" height="218" viewBox="0 0 1067 218" xmlns="http://www.w3.org/2000/svg">
    <g id="Layer-1">
        <g id="Group">
            <path id="Path" fill="#f9b377" stroke="none" d="M 201.18158 27.435547 L 90.744568 79.267517 C 90.744568 79.267517 111.124268 103.082916 146.1315 83.470551 C 164.349792 73.263947 201.18158 27.435547 201.18158 27.435547 Z"/>
            <path id="path1" fill="#bdda78" stroke="none" d="M 192.173218 213.910675 L 140.341217 103.473541 C 140.341217 103.473541 118.335876 126.203796 137.948273 161.211151 C 148.154877 179.429382 192.173218 213.910675 192.173218 213.910675 Z"/>
            <path id="path2" fill="#d7519e" stroke="none" d="M 6.496597 204.637665 L 116.933594 152.805588 C 116.933594 152.805588 97.260773 129.323837 62.25354 148.93634 C 44.035248 159.142822 6.496597 204.637665 6.496597 204.637665 Z"/>
            <path id="path3" fill="#6ac3ff" stroke="none" d="M 6.789505 5.089325 L 58.621506 115.526459 C 58.621506 115.526459 81.865921 97.654861 62.25354 62.647644 C 52.046936 44.429413 6.789505 5.089325 6.789505 5.089325 Z"/>
        </g>
        <g id="g1">
            <g id="g2">
                <path id="path4" fill="#9675ce" stroke="none" d="M 278.456543 77.083466 L 252.981293 77.083466 L 250.246582 77.083466 L 250.246582 79.818237 L 250.246582 143.240997 L 250.246582 145.975754 L 252.981293 145.975754 L 261.647888 145.975754 L 264.38266 145.975754 L 264.38266 143.240997 L 264.38266 125.576019 L 278.033295 125.576019 C 294.847351 125.576019 305.292419 116.143677 305.292419 100.960159 C 305.292419 86.232758 295.009399 77.083466 278.456543 77.083466 Z M 264.38266 90.48056 L 278.033295 90.48056 C 283.922241 90.48056 290.941986 92.334885 290.941986 101.169083 C 290.941986 105.894348 289.603973 112.176132 278.033295 112.176132 L 264.38266 112.176132 L 264.38266 90.48056 Z"/>
                <path id="path5" fill="#9675ce" stroke="none" d="M 378.043091 77.083466 L 375.308594 77.083466 L 375.308594 79.818237 L 375.308594 105.306625 L 346.52887 105.306625 L 346.52887 79.818237 L 346.52887 77.083466 L 343.794098 77.083466 L 335.127563 77.083466 L 332.392792 77.083466 L 332.392792 79.818237 L 332.392792 143.240997 L 332.392792 145.975754 L 335.127563 145.975754 L 343.794098 145.975754 L 346.52887 145.975754 L 346.52887 143.240997 L 346.52887 118.491882 L 375.308594 118.491882 L 375.308594 143.240997 L 375.308594 145.975754 L 378.043091 145.975754 L 386.817139 145.975754 L 389.551758 145.975754 L 389.551758 143.240997 L 389.551758 79.818237 L 389.551758 77.083466 L 386.817139 77.083466 L 378.043091 77.083466 Z"/>
                <path id="path6" fill="#9675ce" stroke="none" d="M 454.465698 78.755829 L 453.760498 77.083466 L 451.945984 77.083466 L 443.595215 77.083466 L 441.777649 77.083466 L 441.073975 78.759277 L 414.43634 142.182037 L 412.842896 145.975754 L 416.957703 145.975754 L 426.047485 145.975754 L 427.880188 145.975754 L 428.576904 144.28038 L 433.483215 132.341141 L 462.057861 132.341141 L 466.964172 144.28038 L 467.660645 145.975754 L 469.493469 145.975754 L 478.69043 145.975754 L 482.811584 145.975754 L 481.210449 142.178482 L 454.465698 78.755829 Z M 456.640076 119.153091 L 438.913818 119.153091 L 447.81366 97.665543 L 456.640076 119.153091 Z"/>
                <path id="path7" fill="#9675ce" stroke="none" d="M 548.557373 122.026321 C 556.601685 118.167114 561.139648 110.65979 561.139648 100.960159 C 561.139648 86.232758 550.816589 77.083466 534.199097 77.083466 L 508.82843 77.083466 L 506.093811 77.083466 L 506.093811 79.818237 L 506.093811 143.240997 L 506.093811 145.975754 L 508.82843 145.975754 L 517.495056 145.975754 L 520.229797 145.975754 L 520.229797 143.240997 L 520.229797 124.941254 L 533.363464 124.941254 L 548.398071 144.887161 L 549.21875 145.975754 L 550.58197 145.975754 L 559.990417 145.975754 L 562.724915 145.975754 L 562.724915 143.240997 L 562.724915 141.551086 L 562.724915 140.628311 L 562.165833 139.894104 L 548.557373 122.026321 Z M 520.229797 90.48056 L 533.880493 90.48056 C 542.376831 90.48056 546.684875 94.076538 546.684875 101.169083 C 546.684875 109.830475 540.123718 111.64856 534.619629 111.64856 L 520.229797 111.64856 L 520.229797 90.48056 Z"/>
                <path id="path8" fill="#9675ce" stroke="none" d="M 646.788635 77.083466 L 645.44751 77.083466 L 644.626465 78.143829 L 623.210144 105.80101 L 601.695618 78.139374 L 600.874329 77.083466 L 599.536987 77.083466 L 593.194824 77.083466 L 590.464905 77.083466 L 590.460327 79.813782 L 590.355774 143.236542 L 590.351318 145.975754 L 593.090515 145.975754 L 601.861694 145.975754 L 604.596191 145.975754 L 604.596191 143.240997 L 604.596191 104.232666 L 619.583984 123.362732 L 620.405151 124.410767 L 621.736633 124.410767 L 624.588989 124.410767 L 625.927185 124.410767 L 626.748535 123.353714 L 641.726685 104.073975 L 641.726685 143.240997 L 641.726685 145.975754 L 644.461426 145.975754 L 653.130798 145.975754 L 655.865356 145.975754 L 655.865356 143.240997 L 655.865356 79.818237 L 655.865356 77.083466 L 653.130798 77.083466 L 646.788635 77.083466 Z"/>
                <path id="path9" fill="#9675ce" stroke="none" d="M 747.419617 142.178482 L 720.674866 78.755829 L 719.96991 77.083466 L 718.155151 77.083466 L 709.804382 77.083466 L 707.986816 77.083466 L 707.28302 78.759277 L 680.645447 142.182037 L 679.052063 145.975754 L 683.16687 145.975754 L 692.256653 145.975754 L 694.0896 145.975754 L 694.786316 144.28038 L 699.692383 132.341141 L 728.267151 132.341141 L 733.173218 144.28038 L 733.869934 145.975754 L 735.702637 145.975754 L 744.899597 145.975754 L 749.020752 145.975754 L 747.419617 142.178482 Z M 722.849243 119.153091 L 705.12323 119.153091 L 714.022949 97.665543 L 722.849243 119.153091 Z"/>
            </g>
            <g id="g3">
                <path id="path10" fill="#c0ace2" stroke="none" d="M 802.269714 104.619217 C 790.223694 101.06926 788.103943 98.940033 788.103943 95.782089 C 788.103943 89.021423 796.995667 88.497559 799.720337 88.497559 C 809.542847 88.497559 814.96759 93.336365 815.014771 93.377823 L 816.669067 94.911575 L 823.516418 84.559509 L 822.448059 83.455292 C 822.174805 83.172729 815.570557 76.528809 799.720337 76.528809 C 784.456116 76.528809 774.974548 83.945221 774.974548 95.88382 C 774.974548 107.441711 783.502563 112.352127 797.274475 116.535065 C 809.57489 120.186752 811.651306 122.572205 811.651306 126.540512 C 811.651306 133.255905 804.990479 134.665298 799.403748 134.665298 C 789.027283 134.665298 782.6698 129.084152 782.607605 129.027695 L 781.02301 127.606964 L 774.088928 137.163803 L 775.177979 138.316986 C 775.500183 138.656113 783.227539 146.637863 799.612915 146.637863 C 814.96759 146.637863 824.890015 138.625977 824.890015 126.223892 C 824.890015 115.374374 818.545776 109.314728 802.269714 104.619217 Z"/>
                <path id="path11" fill="#c0ace2" stroke="none" d="M 854.261658 145.15686 L 902.803467 145.15686 L 902.803467 133.399078 L 866.757935 133.399078 L 866.757935 116.930771 L 897.520142 116.930771 L 897.520142 105.387878 L 866.757935 105.387878 L 866.757935 89.662048 L 902.803467 89.662048 L 902.803467 77.904388 L 854.261658 77.904388 L 854.261658 145.15686 Z"/>
                <path id="path12" fill="#c0ace2" stroke="none" d="M 952.27063 77.904388 L 924.023926 145.15686 L 937.279663 145.15686 L 942.88147 131.522369 L 972.556396 131.522369 L 978.158325 145.15686 L 991.523193 145.15686 L 963.163452 77.904388 L 952.27063 77.904388 Z M 967.81189 119.971985 L 947.633423 119.971985 L 957.765015 95.514557 L 967.81189 119.971985 Z"/>
                <path id="path13" fill="#c0ace2" stroke="none" d="M 1029.356934 133.399078 L 1029.356934 77.904388 L 1016.862549 77.904388 L 1016.862549 145.15686 L 1061.598267 145.15686 L 1061.598267 133.399078 L 1029.356934 133.399078 Z"/>
            </g>
        </g>
    </g>
</svg>
