<svg width="156" height="26" viewBox="0 0 156 26" fill="none" xmlns="http://www.w3.org/2000/svg">
<g clip-path="url(#clip0_6548_3846)">
<path d="M12.5342 4.68927H17.3207C17.4979 4.86295 17.5992 5.10175 17.5992 5.34676V25.6886C17.5992 25.9646 17.2573 26.1042 17.0579 25.9088L12.8128 21.7468C12.6355 21.5731 12.5342 21.3374 12.5342 21.0893V4.68927Z" fill="url(#paint0_linear_6548_3846)"/>
<path d="M25.1969 4.68927V14.8866V21.0893C25.1969 21.3374 25.0956 21.5731 24.9183 21.7468L20.6732 25.9057C20.4737 26.1011 20.1382 25.9646 20.1318 25.6917V5.34056C20.135 5.09865 20.2331 4.86605 20.4072 4.69547L20.4104 4.69237H25.1969V4.68927Z" fill="url(#paint1_linear_6548_3846)"/>
<path d="M33.1109 16.4373L28.9956 11.7852H28.4922C28.4099 11.7852 28.3308 11.8162 28.2706 11.8752C28.2706 11.8752 28.2706 11.8752 28.2675 11.8783L25.1968 14.8866L35.0483 24.538C35.0483 24.538 35.0515 24.5411 35.0546 24.5411C35.2319 24.7117 35.4725 24.8079 35.7226 24.8079H40.8953C41.177 24.8079 41.3195 24.4729 41.1201 24.2775L33.1109 16.4373Z" fill="url(#paint2_linear_6548_3846)"/>
<path d="M32.7944 4.65204V12.0953L37.5809 12.0581C37.7582 11.8844 37.8595 11.6456 37.8595 11.4006V5.34675C37.8595 5.09864 37.7582 4.86293 37.5809 4.68925L32.7944 4.65204Z" fill="url(#paint3_linear_6548_3846)"/>
<path d="M12.8127 0.27292C12.6354 0.0992435 12.3917 0 12.1416 0H0.317836C0.0360922 0 -0.106363 0.334947 0.0930741 0.530333L4.33823 4.68927C4.5155 4.86294 4.75926 4.96219 5.00935 4.96219H12.5341H16.966C17.3143 4.96219 17.5992 5.24131 17.5992 5.58246V5.34676C17.5992 5.09865 17.4979 4.86294 17.3206 4.68927L12.8127 0.27292Z" fill="url(#paint4_linear_6548_3846)"/>
<path d="M24.9183 0.27292C25.0956 0.0992435 25.3393 0 25.5894 0H32.3988C32.652 0 32.8926 0.0992435 33.0699 0.27292L37.5778 4.68927C37.7551 4.86294 37.8564 5.10175 37.8564 5.34676V5.58246C37.8564 5.24131 37.5715 4.96219 37.2232 4.96219H32.7913H25.1969H20.765C20.4167 4.96219 20.1318 5.24131 20.1318 5.58246V5.34676C20.1318 5.09865 20.2331 4.86294 20.4104 4.68927L24.9183 0.27292Z" fill="url(#paint5_linear_6548_3846)"/>
<path d="M37.8596 11.1649C37.8596 11.5061 37.5747 11.7852 37.2265 11.7852H33.4277H28.7457C28.6032 11.7852 28.5336 11.9527 28.6349 12.0488L33.1111 16.4372L37.581 12.0581C37.7583 11.8844 37.8596 11.6456 37.8596 11.4006V11.1649Z" fill="url(#paint6_linear_6548_3846)"/>
<path d="M156 17.9389C156 15.8424 154.769 15.0609 151.781 14.3196C149.982 13.8885 149.504 13.5381 149.504 12.9209C149.504 12.3037 150.068 11.8944 151.239 11.8944C152.429 11.8944 153.788 12.2851 154.937 12.8806L155.313 10.6414C154.164 10.1483 152.765 9.85986 151.261 9.85986C148.567 9.85986 146.978 11.2152 146.978 13.107C146.978 15.1415 148.15 15.923 150.97 16.6022C152.933 17.055 153.477 17.3621 153.477 18.1839C153.477 18.9252 152.724 19.3749 151.41 19.3749C149.925 19.3749 148.358 18.8414 147.127 18.0785L146.772 20.3394C147.88 20.8945 149.615 21.4094 151.306 21.4094C154.351 21.4125 156 20.1161 156 17.9389Z" fill="#116BF2"/>
<path d="M145.363 21.1798V10.0149H142.593V17.5977C141.694 18.4568 140.726 19.0306 139.744 19.0306C138.617 19.0306 138.162 18.3545 138.162 17.3713V10.0149H135.392V18.0877C135.392 20.1564 136.563 21.4031 138.798 21.4031C140.365 21.4031 141.644 20.6092 142.752 19.626L143.147 21.1767H145.363V21.1798Z" fill="#116BF2"/>
<path d="M133.755 21.1798V10.0149H131.017V21.1798H133.755Z" fill="#116BF2"/>
<path d="M132.394 5.13336C133.312 5.13336 134.03 5.78775 134.03 6.69025C134.03 7.58964 133.312 8.24713 132.394 8.24713C131.476 8.24713 130.729 7.59275 130.729 6.69025C130.729 5.78775 131.476 5.13336 132.394 5.13336Z" fill="#116BF2"/>
<path d="M126.642 17.4551C125.828 18.4165 124.948 19.0306 123.821 19.0306C122.441 19.0306 121.418 17.9854 121.418 15.7959C121.418 13.3396 122.609 12.1518 124.239 12.1518C125.284 12.1518 125.888 12.3161 126.642 12.6418V17.4551ZM129.38 21.1798V4.58752L126.642 5.05273V10.4336C125.91 10.1886 124.992 10.0025 123.862 10.0025C121.105 10.0025 118.661 11.8447 118.661 15.9602C118.661 19.685 120.668 21.4062 123.153 21.4062C124.803 21.4062 125.952 20.5875 126.81 19.6447L127.047 21.1798H129.38Z" fill="#116BF2"/>
<path d="M114.789 18.1312C113.912 18.9096 112.909 19.381 111.864 19.381C110.902 19.381 110.319 18.8693 110.319 18.0722C110.319 17.0085 111.177 16.0471 114.789 15.6563V18.1312ZM117.505 21.1798V13.5846C117.505 10.9639 116.043 9.90015 113.036 9.90015C111.177 9.90015 109.775 10.2692 108.398 10.7995L108.733 12.9271C110.009 12.4154 111.323 12.0463 112.703 12.0463C114.02 12.0463 114.792 12.496 114.792 13.7055V14.0529C109.946 14.5026 107.606 15.6501 107.606 18.3297C107.606 20.2525 108.965 21.4 110.991 21.4C112.744 21.4 113.979 20.6619 114.96 19.7408L115.21 21.1736H117.505V21.1798Z" fill="#116BF2"/>
<path d="M107.154 20.7922L102.789 14.9368C104.773 14.3227 106.068 12.9612 106.068 10.7903C106.068 7.92459 103.957 6.29327 100.468 6.29327H95.6626V21.1798H98.5054V15.4423H99.8856L104.147 21.3225L107.154 20.7922ZM103.225 10.9453C103.225 12.5022 102.035 13.3489 100.091 13.3489H98.4832V8.6193H100.259C102.203 8.6193 103.225 9.45047 103.225 10.9453Z" fill="#116BF2"/>
<path d="M94.2318 21.1798L93.8963 18.9499C93.624 19.012 93.2694 19.0306 92.9149 19.0306C91.7879 19.0306 91.3479 18.5405 91.3479 17.6381V12.1858H94.235L93.7601 10.0149H91.3479V6.13818L88.6539 6.60649V10.0149H86.7988V12.1858H88.6539V18.0877C88.6539 20.5843 90.1576 21.3628 92.4147 21.3628C93.2504 21.3628 93.7949 21.2822 94.2318 21.1798Z" fill="#116BF2"/>
<path d="M86.2196 17.9389C86.2196 15.8424 84.9881 15.0609 81.9998 14.3196C80.2017 13.8885 79.7236 13.5381 79.7236 12.9209C79.7236 12.3037 80.2871 11.8944 81.4584 11.8944C82.6487 11.8944 84.0068 12.2851 85.1559 12.8806L85.5326 10.6414C84.3835 10.1483 82.9843 9.85986 81.4806 9.85986C78.7866 9.85986 77.1975 11.2152 77.1975 13.107C77.1975 15.1415 78.3687 15.923 81.1893 16.6022C83.1521 17.055 83.6966 17.3621 83.6966 18.1839C83.6966 18.9252 82.9431 19.3749 81.6294 19.3749C80.1447 19.3749 78.6188 18.8352 77.3874 18.0754L76.9854 20.3425C78.0933 20.8976 79.8344 21.4125 81.5281 21.4125C84.5798 21.4125 86.2196 20.1161 86.2196 17.9389Z" fill="#116BF2"/>
<path d="M75.7189 21.1798V10.0149H72.9489V17.5977C72.0499 18.4568 71.0812 19.0306 70.0999 19.0306C68.9729 19.0306 68.517 18.3545 68.517 17.3713V10.0149H65.7471V18.0877C65.7471 20.1564 66.9184 21.4031 69.1533 21.4031C70.7203 21.4031 71.9993 20.6092 73.1072 19.626L73.5029 21.1767H75.7189V21.1798Z" fill="#116BF2"/>
<path d="M64.481 12.496L63.8478 9.85986C62.1067 10.17 61.0557 11.0694 60.2643 12.3379L59.7325 10.0149H57.6748V21.1799H60.3656V14.822C61.2014 13.6156 62.6227 12.5984 64.481 12.496Z" fill="#116BF2"/>
<path d="M59.4158 8.77437L58.7827 6.29327H45.3286V8.77437H50.3937V21.1798H53.2428V8.77437H59.4158Z" fill="#116BF2"/>
</g>
<defs>
<linearGradient id="paint0_linear_6548_3846" x1="15.0669" y1="26.0512" x2="15.0669" y2="-0.00029748" gradientUnits="userSpaceOnUse">
<stop offset="0.7144" stop-color="#116BF2"/>
<stop offset="1" stop-color="#1E50E5"/>
</linearGradient>
<linearGradient id="paint1_linear_6548_3846" x1="22.6646" y1="26.0512" x2="22.6646" y2="-0.000265706" gradientUnits="userSpaceOnUse">
<stop offset="0.7144" stop-color="#116BF2"/>
<stop offset="1" stop-color="#1E50E5"/>
</linearGradient>
<linearGradient id="paint2_linear_6548_3846" x1="27.0177" y1="13.2575" x2="39.1105" y2="25.601" gradientUnits="userSpaceOnUse">
<stop offset="0.4076" stop-color="#116BF2"/>
<stop offset="1" stop-color="#185DEC"/>
</linearGradient>
<linearGradient id="paint3_linear_6548_3846" x1="35.3269" y1="16.4711" x2="35.3269" y2="-0.0525475" gradientUnits="userSpaceOnUse">
<stop offset="0.578" stop-color="#116BF2"/>
<stop offset="1" stop-color="#1E50E5"/>
</linearGradient>
<linearGradient id="paint4_linear_6548_3846" x1="12.0588" y1="-0.310137" x2="7.09763" y2="4.75386" gradientUnits="userSpaceOnUse">
<stop offset="0.0331" stop-color="#59C5FF"/>
<stop offset="0.989" stop-color="#21B1FF"/>
</linearGradient>
<linearGradient id="paint5_linear_6548_3846" x1="24.4057" y1="0.77559" x2="29.3669" y2="5.83958" gradientUnits="userSpaceOnUse">
<stop offset="0.0387" stop-color="#59C5FF"/>
<stop offset="0.989" stop-color="#21B1FF"/>
</linearGradient>
<linearGradient id="paint6_linear_6548_3846" x1="35.7187" y1="14.0286" x2="31.9979" y2="10.2306" gradientUnits="userSpaceOnUse">
<stop offset="0.0387" stop-color="#57C4FF"/>
<stop offset="0.989" stop-color="#21B1FF"/>
</linearGradient>
<clipPath id="clip0_6548_3846">
<rect width="156" height="26" fill="white"/>
</clipPath>
</defs>
</svg>
